<?xml version="1.0" standalone="no"?>
<!DOCTYPE svg PUBLIC "-//W3C//DTD SVG 20010904//EN"
 "http://www.w3.org/TR/2001/REC-SVG-20010904/DTD/svg10.dtd">
<svg version="1.0" xmlns="http://www.w3.org/2000/svg"
 width="3138.000000pt" height="3138.000000pt" viewBox="0 0 3138.000000 3138.000000"
 preserveAspectRatio="xMidYMid meet">
<metadata>
Created by potrace 1.11, written by Peter Selinger 2001-2013
</metadata>
<g transform="translate(0.000000,3138.000000) scale(0.100000,-0.100000)"
fill="#000000" stroke="none">
<path d="M15788 30235 c-1 -2 -23 -5 -48 -6 -36 -3 -48 -9 -58 -28 -7 -13 -11
-25 -10 -26 4 -3 207 -35 258 -41 137 -15 206 -27 213 -37 11 -18 -5 -307 -39
-659 -4 -46 -7 -75 -19 -198 -3 -30 -8 -73 -10 -95 -10 -100 -18 -171 -20
-185 -1 -8 -6 -46 -9 -85 -4 -38 -9 -77 -11 -85 -2 -8 -7 -46 -10 -84 -3 -38
-8 -72 -9 -75 -2 -3 -7 -37 -10 -76 -4 -38 -9 -77 -11 -85 -2 -8 -6 -37 -10
-65 -5 -41 -40 -263 -49 -307 -17 -82 -19 -88 -40 -93 -11 -2 -93 -7 -181 -10
-404 -13 -513 -17 -552 -19 -41 -2 -43 -1 -86 58 -44 60 -91 132 -113 171 -6
11 -44 79 -84 150 -40 72 -203 389 -363 705 -159 316 -297 589 -305 605 -36
70 -178 315 -213 367 -41 60 -52 63 -91 30 -17 -14 -23 -35 -32 -107 -3 -22
-8 -60 -11 -85 -21 -160 -27 -185 -50 -215 -37 -50 -85 -163 -99 -236 -2 -13
-9 -44 -15 -69 -5 -25 -19 -106 -31 -180 -38 -242 -52 -323 -76 -425 -12 -55
-25 -111 -28 -125 -3 -14 -12 -54 -21 -90 -9 -36 -18 -72 -20 -80 -2 -8 -11
-46 -20 -85 -10 -38 -18 -74 -19 -80 -24 -110 -50 -221 -61 -262 -31 -106
-102 -180 -240 -253 -76 -40 -87 -50 -48 -45 16 2 138 6 273 10 288 8 311 9
400 30 24 6 117 18 123 17 10 -3 9 16 -3 38 -11 20 -60 37 -132 45 -24 3 -80
10 -125 17 l-82 11 -12 71 c-10 64 -8 241 5 303 2 11 8 43 11 70 19 134 71
201 169 218 29 5 231 12 445 16 51 1 96 -2 100 -7 105 -151 161 -250 214 -381
36 -87 73 -243 59 -243 -4 0 -47 -9 -97 -19 -49 -11 -112 -22 -140 -25 -52 -7
-121 -17 -168 -25 -4 0 -6 -4 -5 -8 4 -15 -13 -53 -23 -53 -6 0 -7 -5 -3 -11
7 -11 88 -8 199 7 50 7 90 25 91 42 1 6 2 15 3 20 0 4 72 7 159 7 153 0 245 7
327 25 44 9 249 40 305 46 48 4 396 4 440 -1 19 -2 71 -6 116 -9 45 -4 90 -8
102 -11 24 -4 128 -13 257 -20 50 -3 119 -8 155 -10 36 -3 99 -7 140 -10 128
-7 273 -16 324 -20 52 -4 58 3 10 11 -16 3 -36 7 -44 9 -8 3 -38 7 -65 10 -64
6 -75 9 -176 36 -86 23 -102 33 -94 59 2 8 7 76 10 150 7 146 12 238 20 370 2
47 7 128 10 180 13 228 15 254 23 259 5 3 30 23 55 45 l47 38 72 -6 c152 -14
280 -38 473 -89 l50 -13 17 -65 c14 -51 17 -92 14 -199 -3 -74 -6 -144 -9
-155 -20 -83 -29 -378 -14 -465 40 -246 335 -373 508 -218 26 23 55 68 44 68
-4 0 -16 -5 -28 -12 -12 -6 -47 -13 -78 -14 -55 -3 -57 -2 -61 24 -2 15 -3
144 -2 287 2 268 -3 331 -36 454 -35 132 -127 248 -239 304 l-68 34 96 61 c57
36 112 63 136 66 108 17 175 47 242 109 84 77 123 162 128 279 10 241 -153
450 -430 553 -39 14 -75 33 -81 41 -6 8 -18 14 -26 14 -9 0 -21 7 -28 14 -10
13 -43 22 -138 41 -51 9 -178 16 -397 20 -316 6 -795 17 -825 18 -20 2 -24 7
-23 25 2 12 -1 22 -5 23 -4 0 -19 2 -34 4 -14 2 -28 2 -30 0z m1282 -220 c80
-20 163 -46 185 -58 55 -31 101 -95 116 -164 19 -87 16 -309 -5 -420 -16 -81
-87 -177 -157 -213 -38 -20 -168 -57 -229 -66 -19 -2 -46 -7 -60 -10 -55 -13
-216 -12 -282 0 -98 19 -103 25 -103 149 0 90 9 221 20 288 2 13 6 51 10 84 3
33 8 80 11 105 2 25 6 59 9 75 2 17 7 62 11 100 7 77 11 107 13 116 2 10 82
41 121 46 19 3 37 7 39 9 13 13 178 -9 301 -41z m-3096 -812 c63 -126 141
-280 173 -343 61 -121 62 -122 49 -158 -12 -35 -29 -40 -211 -58 -84 -9 -122
-11 -240 -16 -85 -3 -90 -2 -88 17 1 11 36 155 78 320 42 165 78 305 79 310 6
31 40 155 43 155 1 0 54 -102 117 -227z"/>
<path d="M18494 29971 c-12 -8 -11 -67 1 -69 28 -2 337 -83 380 -99 60 -23 61
-27 28 -183 -13 -58 -25 -116 -28 -130 -7 -36 -121 -448 -156 -565 -203 -671
-360 -1144 -383 -1157 -27 -15 -192 -16 -269 -2 -91 18 -174 28 -167 21 3 -3
17 -8 30 -10 22 -4 177 -44 415 -107 39 -10 149 -39 245 -64 96 -25 185 -49
196 -52 21 -6 22 -3 21 103 -2 178 11 240 133 603 48 146 91 279 94 295 18
104 18 105 40 106 52 3 136 -2 189 -12 103 -18 408 -117 449 -145 107 -75 159
-201 154 -379 -8 -278 -146 -522 -351 -620 -44 -21 -95 -50 -114 -64 l-33 -25
28 -8 c44 -12 269 -8 354 7 259 45 442 181 498 370 25 86 29 113 26 192 -5
187 -103 358 -252 440 -71 39 -159 105 -184 138 -15 19 -14 20 16 21 128 3
288 29 367 60 97 38 188 132 219 229 7 22 12 40 11 40 -1 0 3 13 9 29 17 47
13 173 -9 243 -38 124 -169 279 -286 340 -27 15 -128 52 -224 85 -172 57 -234
73 -156 40 100 -43 192 -121 238 -202 138 -244 33 -616 -208 -737 -60 -31 -99
-36 -173 -24 -54 9 -322 49 -432 66 -87 13 -110 17 -110 23 0 3 15 54 34 112
19 58 44 137 54 175 62 218 139 461 184 583 l20 53 115 -2 c64 -1 131 -6 150
-11 19 -5 37 -8 39 -5 4 3 -167 52 -223 63 -12 2 -34 9 -48 14 -14 5 -25 7
-25 5 0 -2 -11 0 -25 5 -14 5 -36 12 -48 14 -12 2 -53 12 -92 21 -38 9 -81 19
-95 21 -14 3 -54 12 -90 20 -36 9 -74 17 -85 19 -36 5 -100 17 -117 21 -11 3
-15 12 -12 28 7 41 -21 54 -136 61 -58 4 -126 8 -151 10 -25 1 -50 0 -55 -4z"/>
<path d="M11225 29559 c-214 -59 -409 -127 -471 -166 -26 -15 -56 -33 -68 -40
-17 -9 -205 -55 -321 -78 -174 -36 -281 -62 -333 -81 -72 -27 -147 -75 -163
-106 -6 -11 -7 -18 -2 -15 5 3 20 8 34 11 13 2 44 9 69 16 128 32 170 39 245
35 106 -5 126 -10 149 -37 112 -133 764 -1851 733 -1932 -3 -7 -52 -29 -109
-49 -141 -50 -255 -96 -241 -96 6 -1 55 11 109 25 53 14 107 28 118 30 12 2
84 20 161 40 77 19 151 38 164 40 14 3 57 14 97 25 69 19 88 24 140 34 12 3
109 35 215 71 107 36 252 81 323 99 107 28 141 42 195 79 36 25 80 51 96 57
58 24 156 101 205 160 61 73 95 138 117 222 63 246 -44 468 -282 585 -67 33
-172 68 -225 76 -80 12 -116 17 -135 21 -11 2 -74 4 -140 4 l-120 1 85 57
c112 74 227 191 263 266 75 156 26 356 -121 494 -44 41 -156 103 -217 118 -16
5 -34 9 -40 11 -76 20 -190 33 -345 38 -92 4 -129 1 -185 -15z m183 -104 c38
-7 126 -51 162 -83 65 -54 144 -192 170 -297 24 -98 31 -223 18 -319 -7 -53
-13 -64 -56 -105 -26 -26 -63 -60 -83 -76 -54 -46 -53 -50 8 -53 394 -17 675
-298 674 -673 0 -91 -21 -191 -55 -257 -20 -39 -33 -52 -78 -72 -29 -13 -84
-38 -123 -55 -79 -36 -212 -83 -259 -90 -17 -3 -44 -8 -61 -12 -43 -9 -187 -5
-197 5 -9 9 -134 308 -205 487 -19 50 -45 117 -58 150 -13 33 -45 123 -70 200
-26 77 -53 154 -61 172 -8 17 -14 33 -14 36 0 6 -139 336 -166 394 -29 63
-112 279 -127 333 -9 30 -18 86 -20 123 l-4 69 38 24 c43 27 166 70 225 80 22
3 42 8 45 10 4 2 47 7 95 10 49 3 90 7 91 8 4 3 75 -2 111 -9z"/>
<path d="M21561 29122 c42 -29 104 -82 139 -118 73 -78 73 -69 -5 -230 -61
-127 -107 -207 -285 -494 -148 -239 -281 -468 -452 -780 -14 -25 -51 -88 -83
-140 -119 -193 -187 -248 -294 -236 -47 5 -142 34 -233 71 -10 4 -18 4 -18 1
0 -3 24 -17 53 -30 28 -13 97 -45 152 -71 55 -26 159 -74 230 -107 72 -34 186
-88 255 -120 69 -33 148 -69 175 -80 28 -12 55 -25 60 -29 12 -9 112 -53 105
-46 -3 3 -35 25 -71 49 -70 47 -145 113 -160 140 -17 32 46 173 163 366 82
135 85 141 198 338 47 81 108 172 135 201 l50 54 60 -25 c94 -38 156 -77 206
-126 87 -87 95 -176 33 -375 -20 -66 -47 -158 -60 -205 -23 -89 -20 -90 31 -4
65 108 223 367 251 411 19 28 34 54 34 58 0 4 8 19 19 33 17 25 216 351 318
520 24 41 38 70 31 66 -30 -19 -69 -56 -158 -148 -202 -212 -223 -231 -268
-244 -85 -25 -226 -12 -427 41 -40 11 -49 17 -47 33 6 32 73 183 117 263 23
42 55 99 70 126 16 28 64 109 108 180 76 125 91 148 150 243 15 23 35 42 45
43 17 1 33 3 83 13 20 4 31 -1 47 -23 19 -26 97 -65 243 -121 32 -12 104 -48
160 -81 57 -32 110 -59 117 -59 22 0 91 -120 118 -204 40 -129 32 -227 -41
-471 -20 -66 -38 -149 -41 -185 l-5 -65 22 40 c12 22 76 125 141 228 138 219
143 227 219 371 l57 110 -53 42 c-70 53 -190 116 -289 149 -68 23 -125 55 -99
55 4 0 -26 20 -67 45 -116 69 -305 152 -410 179 -52 14 -149 50 -215 81 -66
31 -133 63 -150 70 -16 7 -138 64 -270 125 -132 62 -247 114 -255 118 -8 3 19
-18 61 -46z"/>
<path d="M7927 28143 c-1 -1 -38 -4 -82 -8 -109 -8 -183 -29 -295 -83 -85 -41
-107 -58 -205 -157 l-111 -110 -39 -145 c-22 -80 -40 -147 -40 -150 -1 -3 -9
-41 -20 -85 -28 -118 -26 -341 3 -450 51 -188 171 -374 367 -570 301 -301 563
-419 910 -411 77 2 151 6 165 10 14 3 51 11 83 16 88 17 371 117 340 121 -30
4 -40 2 -78 -15 -170 -75 -392 -41 -595 92 -63 42 -74 51 -189 153 -264 235
-524 558 -655 814 -52 101 -82 193 -90 275 -3 30 -8 66 -11 80 -13 59 -12 197
1 250 45 172 179 253 435 266 102 5 114 2 239 -59 240 -116 574 -461 852 -882
214 -323 259 -565 164 -877 l-14 -48 26 19 c37 27 91 86 138 151 372 517 62
1334 -632 1665 -94 45 -260 100 -329 110 -22 3 -46 8 -53 10 -23 8 -279 24
-285 18z"/>
<path d="M23931 28003 c28 -74 61 -99 154 -118 43 -8 118 -89 140 -151 16 -46
16 -53 2 -80 -29 -55 -479 -608 -826 -1014 -231 -270 -452 -512 -518 -566
l-42 -35 -62 16 c-71 19 -130 47 -226 108 -165 106 -94 31 98 -102 318 -222
439 -299 519 -331 19 -8 113 -69 208 -137 94 -67 172 -117 172 -110 0 7 -17
33 -37 58 -40 49 -116 104 -220 161 -35 18 -63 38 -63 43 0 6 15 42 34 80 38
80 89 147 192 255 40 41 120 134 179 205 59 72 117 141 129 155 23 28 149 183
151 187 4 7 155 -51 204 -78 171 -96 258 -211 285 -381 6 -36 -35 -97 -200
-298 -261 -319 -314 -411 -315 -553 -3 -235 285 -337 498 -177 47 36 61 50 50
50 -2 0 -28 -18 -57 -40 -51 -38 -57 -40 -128 -40 l-74 0 5 28 c19 100 53 160
238 417 139 193 180 293 175 430 -2 72 -8 102 -30 150 -33 72 -44 134 -25 145
15 10 68 3 129 -16 139 -43 312 -45 434 -4 254 84 380 350 292 614 -37 108
-83 177 -193 283 -52 51 -92 96 -89 101 3 5 -21 26 -54 46 -64 40 -179 84
-162 63 5 -6 12 -23 16 -37 8 -30 84 -92 149 -122 59 -27 62 -37 62 -198 -1
-105 -4 -134 -23 -181 -52 -130 -153 -249 -282 -334 -94 -61 -125 -73 -187
-70 -199 11 -320 52 -498 171 -112 74 -113 75 -116 120 -3 34 2 46 26 70 49
49 127 136 170 187 22 27 45 54 50 60 6 7 58 70 115 141 57 71 138 164 180
207 l75 78 69 -4 c56 -3 77 -9 110 -33 52 -36 66 -44 66 -38 0 7 -314 230
-466 330 -72 47 -167 104 -210 126 -65 34 -85 50 -114 93 -30 44 -44 55 -95
74 -77 28 -76 28 -64 -4z"/>
<path d="M15091 27274 c-156 -32 -304 -150 -380 -304 -38 -77 -40 -88 -30
-116 10 -25 9 -43 -5 -95 -10 -35 -20 -76 -23 -90 -4 -20 -15 -29 -51 -42 -64
-22 -117 -35 -177 -43 -27 -3 -52 -8 -55 -9 -3 -2 -37 -6 -75 -10 -39 -4 -81
-9 -95 -11 -44 -8 -484 -14 -507 -8 -12 3 -41 34 -64 67 -23 34 -79 98 -123
142 -139 138 -268 189 -461 181 -57 -3 -108 -7 -113 -10 -5 -3 -24 -8 -43 -11
-19 -3 -79 -17 -134 -31 -217 -55 -207 -54 -345 -59 -183 -7 -222 -14 -378
-67 -200 -68 -234 -83 -332 -147 -47 -31 -101 -64 -120 -72 -83 -38 -140 -115
-179 -243 -24 -79 -24 -76 -57 -261 -14 -77 -29 -143 -32 -146 -18 -17 -244
-99 -274 -99 -41 0 -143 -28 -273 -74 -101 -35 -138 -43 -230 -48 l-50 -2 -24
51 -23 51 -137 50 c-75 28 -154 56 -176 63 -54 18 -246 17 -315 0 -48 -12
-448 -203 -537 -257 -18 -10 -40 -35 -50 -54 -14 -25 -26 -35 -43 -36 -31 0
-481 -342 -588 -446 -126 -123 -153 -214 -146 -503 3 -146 1 -179 -14 -221
-30 -82 -37 -91 -114 -120 -47 -18 -101 -50 -153 -91 -44 -34 -96 -70 -115
-79 -100 -47 -136 -68 -193 -114 -75 -61 -69 -61 -277 10 -80 28 -176 56 -215
63 -133 24 -244 -6 -311 -85 -15 -18 -31 -32 -36 -30 -5 1 -41 -3 -81 -9 -71
-11 -73 -12 -146 -83 -154 -148 -177 -174 -206 -230 -16 -32 -44 -70 -61 -85
-17 -15 -50 -53 -73 -84 -34 -44 -51 -58 -78 -63 -34 -6 -109 -56 -147 -98
-11 -12 -50 -53 -87 -92 -69 -74 -114 -155 -144 -258 -21 -70 -30 -498 -14
-616 16 -114 17 -181 4 -227 -20 -68 -85 -154 -240 -318 -26 -27 -85 -98 -132
-157 -63 -80 -93 -110 -118 -118 -24 -8 -109 -10 -272 -6 -199 5 -246 3 -288
-10 -106 -33 -155 -63 -241 -143 -73 -69 -127 -154 -160 -254 -30 -91 -55
-139 -125 -243 -26 -40 -104 -185 -173 -323 -69 -138 -137 -267 -152 -286 -72
-94 -93 -242 -55 -380 24 -89 69 -214 85 -240 7 -11 34 -59 60 -107 46 -86 46
-87 40 -160 -3 -40 -8 -76 -11 -81 -2 -4 -7 -20 -9 -35 -9 -52 -47 -148 -110
-281 -66 -138 -134 -308 -134 -336 0 -23 -61 -43 -255 -86 -270 -59 -356 -121
-460 -334 -50 -103 -133 -332 -170 -470 -9 -33 -25 -91 -36 -130 -11 -38 -26
-99 -34 -135 -9 -36 -18 -74 -20 -85 -38 -158 -60 -333 -60 -480 0 -141 8
-200 37 -269 40 -95 80 -139 209 -231 115 -81 121 -95 122 -270 0 -73 -13
-337 -18 -345 -1 -3 -5 -32 -9 -65 -24 -231 -81 -321 -271 -427 -44 -25 -116
-64 -159 -89 -127 -70 -185 -141 -223 -272 -13 -44 -16 -157 -18 -722 -3 -650
2 -781 28 -797 6 -4 29 -10 50 -14 37 -6 38 -7 34 -40 -4 -28 -1 -37 17 -46
23 -12 116 -83 156 -118 54 -48 130 -92 215 -124 156 -60 169 -70 179 -142 4
-22 8 -49 10 -60 8 -40 18 -141 31 -309 5 -69 13 -131 22 -170 2 -11 6 -65 9
-120 3 -87 1 -106 -17 -143 -19 -38 -27 -44 -78 -58 -143 -39 -180 -72 -186
-163 -4 -62 -28 -126 -65 -171 -36 -44 -51 -124 -54 -290 -3 -135 1 -213 18
-306 7 -36 15 -60 53 -157 38 -98 63 -248 52 -312 -6 -38 -4 -43 38 -85 69
-68 83 -105 90 -226 4 -78 2 -104 -7 -104 -7 0 10 -21 38 -47 27 -27 66 -70
88 -98 104 -137 190 -189 388 -240 228 -59 235 -64 265 -189 13 -53 63 -184
126 -326 113 -260 132 -329 114 -420 -4 -19 -10 -55 -13 -80 -3 -25 -22 -119
-41 -210 -42 -195 -54 -272 -55 -360 -2 -113 16 -162 130 -364 50 -87 90 -160
90 -163 0 -2 18 -31 41 -64 49 -73 64 -107 78 -181 5 -32 20 -80 32 -108 22
-52 47 -68 89 -57 15 4 20 0 20 -15 0 -46 140 -217 242 -295 80 -62 186 -111
278 -127 19 -4 109 -9 200 -12 91 -3 185 -10 209 -16 63 -16 115 -71 137 -145
10 -32 27 -71 38 -87 12 -16 39 -66 61 -110 35 -70 46 -83 88 -106 32 -17 65
-48 103 -98 60 -79 58 -75 70 -177 11 -95 6 -192 -12 -245 -3 -8 -8 -68 -11
-133 -10 -203 25 -337 123 -474 57 -80 568 -595 705 -711 54 -45 119 -107 147
-137 27 -29 53 -51 57 -47 4 4 154 7 333 8 180 0 341 3 357 7 17 3 58 8 92 12
63 7 63 7 102 -32 68 -68 103 -97 260 -218 171 -133 256 -207 273 -239 7 -13
13 -93 14 -218 3 -270 3 -269 104 -468 33 -66 60 -126 60 -134 0 -16 11 -28
60 -66 18 -14 39 -31 47 -39 8 -8 40 -16 70 -18 48 -4 70 -13 137 -58 207
-136 565 -333 693 -381 61 -23 82 -26 204 -26 337 1 519 55 578 171 29 55 63
80 106 75 67 -6 192 -47 400 -131 116 -47 224 -89 242 -94 23 -7 37 -21 53
-53 19 -41 24 -44 80 -55 33 -7 60 -16 60 -21 0 -5 4 -42 10 -82 5 -40 12 -95
15 -122 6 -50 31 -176 41 -209 3 -9 22 -26 42 -36 21 -11 62 -47 92 -82 89
-103 164 -163 280 -227 61 -33 100 -46 206 -66 72 -14 137 -28 145 -31 9 -3
28 -28 45 -54 l29 -49 105 -5 c87 -4 124 -12 215 -43 107 -36 114 -37 255 -37
291 -1 430 18 535 70 74 38 125 83 239 213 65 74 109 116 120 114 9 -1 67 -5
128 -9 62 -4 120 -8 129 -10 9 -2 61 -6 115 -10 55 -3 110 -8 124 -10 14 -2
70 -7 125 -11 55 -4 116 -8 135 -9 19 -2 42 -4 51 -4 24 -1 169 -151 170 -175
1 -59 11 -142 18 -148 4 -4 22 -3 41 2 39 11 39 11 46 -24 4 -26 63 -87 149
-153 66 -50 99 -67 166 -87 51 -14 59 -21 89 -70 18 -30 38 -52 44 -50 6 2
288 6 626 9 338 2 626 6 640 8 54 6 128 58 172 121 23 33 70 91 103 127 61 67
110 149 160 269 32 77 66 125 103 144 41 21 147 40 282 51 41 3 93 8 115 10
22 2 76 7 120 10 44 4 94 8 110 10 17 2 68 6 115 10 l85 7 70 -78 c236 -262
316 -313 530 -339 98 -12 255 -5 335 15 19 5 48 11 63 14 16 3 43 10 61 16 18
6 42 13 52 15 10 2 52 13 92 24 40 10 75 19 77 19 3 0 29 3 58 6 28 3 84 8
122 11 126 10 283 56 433 126 243 113 370 257 408 464 34 184 64 265 116 310
70 59 285 162 483 231 72 25 95 28 223 29 l144 2 29 -51 c54 -94 69 -104 162
-112 34 -2 89 -10 122 -17 67 -13 283 -16 361 -5 61 9 214 58 295 94 54 24 79
53 79 89 0 18 121 100 220 150 41 21 122 65 180 100 97 57 223 115 250 115 36
0 165 118 223 204 98 144 115 217 112 490 -2 236 -6 219 56 231 37 7 97 53
115 87 42 84 84 125 157 153 130 51 204 107 257 194 27 43 30 44 135 41 78 -2
147 -7 227 -17 40 -4 141 -8 223 -7 138 1 156 3 225 28 109 41 134 58 247 171
76 76 118 110 165 133 45 22 72 42 90 69 14 21 45 58 70 83 25 25 69 74 99
110 95 115 112 131 210 195 134 87 178 149 183 255 1 16 20 44 54 77 29 30 53
62 54 75 0 13 2 37 4 53 2 29 -10 143 -21 195 -10 51 -57 127 -116 188 -55 58
-60 66 -53 95 14 65 118 245 211 366 21 27 47 61 58 76 11 16 25 33 30 39 6 6
43 50 83 97 87 104 155 169 179 170 10 0 27 2 38 4 40 8 143 15 275 20 226 8
356 55 475 171 52 51 73 82 131 190 57 107 94 157 150 204 31 26 47 51 64 98
12 34 26 62 30 62 17 0 103 86 144 144 80 112 170 320 190 437 3 19 8 45 11
59 16 75 3 257 -22 318 -17 43 -51 82 -70 82 -7 0 -14 7 -14 15 -1 8 -2 18 -4
23 -1 4 -5 23 -9 42 -4 20 -31 68 -60 108 l-54 73 2 83 c1 76 4 85 33 120 17
21 57 100 89 175 31 75 74 172 95 216 20 44 44 113 52 153 9 41 17 76 20 78 7
7 110 23 188 28 153 10 257 65 438 231 48 44 53 55 86 170 13 44 44 148 70
230 25 83 48 157 50 165 2 8 37 125 78 260 111 363 110 357 111 510 1 138 -2
164 -30 248 -23 68 -56 132 -137 264 -67 109 -75 117 -114 128 -24 7 -43 15
-44 19 0 3 -3 17 -6 31 -14 65 -6 454 12 520 2 8 6 36 9 61 10 80 45 200 70
243 13 23 56 71 95 107 57 53 86 72 147 94 102 37 166 98 190 181 18 63 18 32
10 1331 l-3 462 -38 50 c-21 27 -53 57 -71 67 -26 14 -35 28 -44 66 -7 26 -15
49 -18 49 -4 1 -16 3 -27 4 -42 6 -157 35 -192 50 -90 38 -120 98 -138 275 -3
30 -7 62 -10 70 -2 8 -7 53 -10 100 -4 47 -9 88 -11 92 -8 13 -17 326 -10 362
6 29 20 45 84 92 176 132 248 222 256 319 14 169 19 250 18 351 0 108 -3 121
-71 360 -38 137 -77 274 -85 304 -8 30 -31 111 -51 180 -35 121 -70 244 -81
285 -3 11 -6 25 -8 30 -32 119 -39 134 -100 194 -70 69 -110 99 -180 131 -58
26 -208 65 -286 74 -30 4 -64 8 -75 11 -11 2 -28 4 -38 4 -10 1 -20 9 -24 19
-3 9 -45 114 -93 232 -125 306 -179 475 -180 557 0 20 14 56 38 95 66 108 131
237 159 317 23 65 27 91 26 181 0 128 -25 208 -133 440 -40 85 -74 162 -75
170 -2 8 -7 37 -11 63 -6 42 -13 53 -51 82 -33 25 -68 74 -144 201 -90 150
-162 260 -180 274 -3 3 -32 43 -64 90 -31 47 -58 86 -59 87 -1 1 -27 5 -56 9
-30 4 -64 12 -75 20 -36 23 -129 56 -195 70 -43 8 -135 12 -268 11 l-204 -2
-42 45 c-53 57 -200 242 -341 429 l-108 144 2 74 c1 41 4 84 7 96 2 12 7 35 9
50 3 16 22 76 42 135 46 138 49 228 9 345 -29 86 -79 190 -123 254 -62 92
-331 368 -434 445 -44 33 -58 51 -82 110 -31 73 -56 103 -182 216 -83 74 -168
118 -247 128 -50 5 -58 4 -58 -10 0 -13 -10 -16 -52 -15 -29 1 -163 1 -298 0
-135 -1 -256 1 -270 4 -14 3 -44 7 -67 10 -51 6 -87 21 -133 56 -19 15 -107
64 -195 110 -191 99 -262 144 -336 218 -69 69 -66 54 -84 431 -3 58 -7 112 -8
120 -2 8 -7 33 -11 55 -14 69 -72 177 -128 236 -82 86 -123 114 -313 214 -122
64 -217 127 -279 184 -51 47 -217 152 -331 209 -289 145 -637 133 -818 -28
-46 -40 -51 -43 -115 -44 -99 -3 -314 37 -397 73 -11 5 -58 23 -105 41 -170
65 -359 174 -358 207 1 21 -12 169 -18 196 -7 37 -17 64 -51 138 l-35 77 -53
7 c-51 6 -53 8 -69 48 -9 24 -34 63 -56 87 -22 25 -40 54 -40 66 0 40 -80 98
-181 132 -153 50 -263 76 -376 87 -32 3 -112 20 -178 36 -161 41 -154 40 -205
45 -25 2 -65 6 -90 9 -221 25 -437 25 -530 0 -107 -28 -156 -61 -304 -207 -54
-53 -101 -96 -105 -96 -3 1 -20 -5 -36 -14 -32 -17 -93 -19 -530 -21 -314 -2
-370 36 -416 278 -16 86 -40 132 -104 200 -31 33 -63 72 -71 88 -9 16 -23 27
-37 28 -68 2 -175 29 -230 59 -83 44 -153 52 -432 50 -486 -4 -900 -3 -935 2
-19 3 -64 -1 -99 -8z m779 -385 c320 -1 523 -6 535 -12 11 -5 41 -27 67 -49
42 -35 45 -40 35 -63 -14 -29 -42 -41 -112 -50 -28 -4 -81 -23 -120 -43 l-70
-37 3 -75 c2 -41 5 -84 7 -95 2 -11 4 -28 4 -37 1 -10 28 -35 61 -58 36 -24
69 -57 85 -84 14 -23 25 -45 25 -48 0 -2 -150 -3 -332 -2 -183 1 -429 3 -545
4 -117 1 -215 5 -217 9 -10 16 38 92 79 128 l43 36 -4 81 c-2 45 -4 102 -5
128 l-2 47 -98 43 c-54 24 -99 46 -99 51 0 4 9 16 20 27 11 11 20 33 20 49 0
50 6 56 58 54 26 -1 279 -2 562 -4z m-2720 -347 c0 -4 -4 -12 -9 -17 -13 -15
-65 -116 -84 -163 -9 -23 -19 -65 -22 -92 -9 -90 34 -139 127 -146 71 -5 152
-31 166 -55 10 -15 7 -30 -14 -83 -21 -53 -32 -67 -61 -81 -50 -24 -91 -35
-143 -40 -120 -11 -156 -17 -237 -36 -48 -12 -96 -23 -106 -25 -10 -2 -27 -6
-37 -9 -21 -7 -42 -11 -96 -20 -49 -7 -84 -13 -154 -25 -91 -16 -216 -35 -285
-45 -22 -3 -53 -8 -69 -11 l-28 -6 34 63 c19 35 47 83 62 106 25 37 27 48 22
95 -14 115 -12 112 -82 146 -46 23 -84 34 -130 37 -36 3 -75 10 -85 16 -11 5
-23 8 -28 5 -14 -9 0 86 20 132 11 26 25 42 36 43 102 6 132 14 219 55 77 37
83 38 200 40 69 1 130 6 142 13 12 6 22 10 22 7 0 -3 15 0 33 5 17 6 40 12 50
14 10 2 52 14 95 25 129 36 252 57 350 59 50 1 92 -2 92 -7z m5590 -23 c93
-13 165 -31 427 -110 268 -81 341 -96 527 -113 30 -3 48 -14 86 -52 44 -44 48
-52 46 -93 l-1 -44 -45 -3 c-25 -1 -95 -5 -157 -8 -126 -7 -155 -15 -178 -50
-21 -31 -26 -114 -9 -161 15 -45 56 -105 67 -98 19 12 57 -29 72 -79 8 -28 15
-55 15 -60 0 -8 -104 -5 -205 7 -126 15 -254 64 -304 117 l-26 28 -43 -20 -43
-21 -42 35 c-50 41 -119 73 -179 81 -104 15 -233 59 -257 89 -7 8 -4 24 8 51
14 32 34 49 94 85 42 25 78 54 81 65 3 10 4 58 2 105 -3 107 -18 136 -101 197
-35 27 -64 52 -65 56 0 10 143 7 230 -4z m-4044 -271 c3 -59 20 -80 62 -76 34
3 37 1 36 -22 -1 -18 20 -46 85 -110 118 -118 233 -176 391 -197 70 -10 1001
-10 1100 -1 41 4 90 12 108 17 18 5 33 9 35 8 1 0 26 8 55 18 97 35 209 135
362 323 30 37 42 44 80 48 97 10 296 5 440 -12 19 -2 58 -6 85 -9 89 -11 119
-14 175 -20 92 -10 112 -16 136 -44 46 -50 91 -127 118 -196 56 -149 119 -230
240 -310 44 -29 105 -78 135 -108 32 -34 59 -53 68 -50 8 3 26 -6 41 -19 49
-45 116 -75 212 -96 52 -12 167 -38 255 -58 88 -20 165 -37 170 -38 6 -1 36
-8 68 -16 43 -10 63 -10 80 -2 12 6 81 14 152 17 72 3 139 7 150 9 11 2 43 7
70 10 91 13 104 16 188 44 75 25 129 57 256 148 62 44 141 30 361 -64 52 -22
116 -46 142 -52 42 -11 49 -17 73 -65 26 -50 28 -52 54 -42 25 9 32 6 72 -30
24 -23 73 -65 109 -95 36 -31 64 -61 63 -69 0 -8 -7 -49 -15 -91 -7 -43 -11
-107 -8 -147 4 -61 9 -74 36 -103 17 -18 59 -73 94 -123 81 -115 154 -185 233
-223 90 -43 165 -64 188 -51 17 9 19 6 19 -26 0 -31 3 -35 26 -35 14 0 49 -13
77 -28 29 -16 74 -36 101 -45 27 -9 77 -34 111 -56 35 -22 81 -41 107 -45 70
-10 138 -39 232 -95 217 -131 323 -144 537 -63 129 49 237 72 333 72 l71 0 28
-45 c34 -53 106 -116 242 -212 55 -39 123 -96 152 -126 37 -41 57 -55 72 -52
14 3 21 -1 22 -13 0 -9 3 -26 5 -37 2 -11 5 -145 5 -297 0 -157 4 -278 9 -278
19 0 88 -79 124 -141 20 -35 55 -89 77 -119 22 -30 55 -78 75 -107 19 -29 43
-55 52 -57 10 -3 31 -36 47 -73 37 -85 139 -191 225 -232 32 -16 73 -46 92
-67 130 -151 261 -253 344 -268 91 -17 335 -24 540 -16 51 2 68 -2 102 -24 50
-31 69 -59 75 -109 3 -21 8 -41 13 -45 4 -4 4 1 1 11 -12 34 13 16 101 -71
106 -105 228 -274 287 -397 65 -135 65 -137 5 -182 -36 -27 -50 -44 -51 -63 0
-14 -2 -32 -4 -40 -2 -8 -6 -31 -10 -50 -3 -19 -11 -53 -16 -75 -18 -67 -20
-78 -21 -145 -1 -64 26 -196 43 -215 5 -5 9 -15 9 -22 0 -18 35 -91 100 -208
61 -111 100 -195 100 -220 0 -9 17 -33 38 -54 111 -113 236 -312 315 -503 10
-23 21 -36 29 -33 7 3 72 -34 143 -83 177 -120 190 -125 355 -129 74 -2 147
-8 162 -14 31 -13 56 -60 63 -120 9 -81 28 -143 77 -264 27 -66 67 -163 88
-215 21 -52 46 -128 55 -169 20 -87 15 -106 -54 -184 -96 -112 -143 -207 -166
-335 -11 -65 -12 -223 -1 -292 2 -14 7 -47 11 -75 7 -48 35 -167 56 -231 5
-17 11 -40 14 -50 2 -10 26 -86 54 -169 27 -82 66 -213 86 -290 57 -219 74
-274 94 -293 11 -9 26 -33 34 -53 13 -33 38 -50 214 -154 109 -65 215 -128
235 -141 21 -13 41 -24 46 -24 7 0 30 -37 37 -60 1 -3 4 -12 8 -20 20 -52 59
-195 72 -265 3 -16 7 -41 10 -55 26 -135 26 -351 0 -425 -19 -54 -52 -108 -76
-126 -15 -10 -58 -27 -96 -37 -73 -18 -82 -24 -137 -90 -41 -49 -62 -114 -71
-217 -6 -71 -6 -72 -66 -118 -38 -29 -50 -73 -50 -195 1 -316 10 -872 16 -907
6 -38 84 -358 88 -362 2 -1 23 -3 49 -4 41 -2 48 -6 61 -33 8 -17 41 -60 73
-96 33 -36 68 -82 78 -102 15 -28 29 -39 63 -48 l42 -12 -4 -122 c-3 -66 -7
-143 -9 -171 -3 -27 -8 -81 -11 -120 -6 -62 -36 -269 -50 -350 -4 -16 -14 -45
-23 -64 -15 -31 -24 -36 -92 -53 -237 -58 -429 -220 -506 -424 -24 -63 -25
-85 -9 -146 5 -21 3 -27 -15 -33 -12 -4 -27 -1 -35 5 -15 12 -16 6 -15 -55 0
-3 -13 -31 -29 -63 -16 -31 -36 -79 -46 -107 -21 -63 -84 -306 -91 -354 -3
-20 -9 -52 -14 -71 -43 -168 -59 -473 -31 -594 19 -81 67 -166 157 -279 80
-100 85 -109 76 -135 -21 -54 -132 -409 -154 -492 -22 -84 -23 -86 -103 -162
-44 -43 -82 -78 -85 -79 -3 0 -19 -2 -37 -5 -70 -9 -231 -47 -298 -71 -210
-75 -312 -167 -347 -314 -17 -69 -60 -147 -197 -359 -84 -130 -177 -290 -203
-350 -22 -48 -28 -71 -33 -119 -2 -22 -18 -75 -36 -118 -86 -214 -86 -296 3
-483 22 -47 41 -93 43 -103 2 -10 6 -26 9 -35 21 -71 17 -103 -20 -170 -89
-163 -293 -410 -397 -481 -12 -8 -47 -37 -78 -63 l-56 -49 -204 -4 c-202 -4
-234 -6 -338 -26 -129 -26 -152 -40 -324 -195 -89 -81 -202 -184 -252 -228
-149 -135 -143 -128 -149 -176 -7 -54 -21 -69 -94 -96 -55 -21 -58 -23 -77
-78 -27 -76 -93 -159 -150 -186 -47 -23 -55 -39 -30 -60 12 -10 14 -54 11
-288 -2 -153 -4 -280 -5 -284 -1 -4 -22 -21 -49 -39 -26 -17 -101 -87 -167
-154 -131 -134 -229 -212 -399 -317 -124 -77 -131 -78 -230 -33 -122 56 -163
69 -262 84 -65 9 -170 3 -234 -14 -3 -1 -21 -5 -40 -9 -64 -16 -184 -72 -315
-150 -131 -77 -167 -92 -240 -99 -34 -3 -40 -8 -43 -30 -5 -41 -99 -90 -175
-93 -32 -1 -64 -7 -70 -13 -7 -7 -12 -33 -12 -58 0 -40 -3 -46 -24 -50 -13 -2
-49 -19 -80 -37 -31 -19 -80 -43 -108 -53 -43 -14 -55 -23 -63 -49 -16 -48
-93 -166 -139 -214 -39 -40 -42 -47 -35 -79 15 -71 10 -163 -13 -249 -12 -46
-24 -85 -25 -87 -3 -2 -172 -44 -201 -50 -39 -8 -66 -19 -172 -70 -130 -62
-200 -89 -275 -104 -155 -32 -218 -17 -375 89 -111 75 -160 96 -265 116 -82
15 -243 2 -355 -28 -22 -5 -50 -12 -62 -14 -12 -2 -35 -9 -50 -15 -16 -6 -29
-10 -31 -9 -1 0 -39 -11 -85 -24 -72 -22 -224 -59 -297 -72 -14 -3 -32 -7 -40
-9 -8 -2 -31 -7 -50 -10 -192 -31 -406 -114 -480 -187 -14 -13 -54 -35 -90
-48 -35 -13 -75 -36 -87 -50 -26 -29 -123 -220 -153 -302 -12 -32 -28 -59 -38
-62 -17 -5 -178 -39 -237 -51 -16 -3 -48 -8 -70 -11 -22 -3 -65 -10 -95 -16
-84 -16 -366 -19 -427 -5 -47 11 -55 18 -99 77 -26 36 -61 76 -77 90 -17 14
-42 37 -57 52 -25 26 -91 47 -195 62 -23 4 -50 8 -60 10 -25 5 -158 24 -210
30 -204 25 -697 25 -920 1 -22 -3 -69 -7 -105 -10 -178 -13 -218 -16 -250 -21
-43 -6 -96 -46 -175 -133 -33 -36 -87 -95 -121 -130 l-61 -64 -234 -2 c-143
-1 -239 2 -246 8 -7 5 -13 18 -13 27 0 14 -20 25 -82 46 -108 36 -103 35 -177
39 l-64 3 -62 119 c-120 231 -154 279 -212 304 -25 11 -57 28 -72 38 -70 49
-307 151 -388 167 -12 2 -34 9 -48 14 -14 5 -25 8 -25 5 0 -2 -14 0 -30 5 -28
8 -50 11 -185 26 -67 7 -208 37 -395 84 -228 57 -352 67 -452 36 -27 -8 -48
-12 -48 -10 0 14 -173 -89 -244 -146 -85 -70 -88 -71 -139 -69 -130 6 -369 90
-728 256 -96 44 -107 64 -114 213 -3 58 -10 123 -16 145 -31 117 -152 273
-311 401 -40 32 -101 85 -136 116 -35 32 -98 76 -140 97 -42 22 -117 65 -167
97 -321 204 -435 256 -635 289 -81 13 -368 14 -389 1 -4 -3 -14 -25 -20 -48
l-12 -43 -114 -2 -113 -2 -34 44 c-24 32 -56 56 -123 90 -80 41 -137 78 -171
110 -6 5 -35 30 -64 54 -29 25 -58 50 -64 56 -6 5 -46 39 -88 75 -65 53 -78
70 -79 95 0 16 -2 47 -5 67 -2 21 -5 125 -8 230 -2 106 -7 204 -10 218 -9 39
-54 123 -83 156 -16 17 -40 46 -56 65 -15 19 -181 189 -370 379 -188 190 -358
369 -377 398 -36 54 -42 57 -125 67 -27 3 -52 11 -54 18 -9 27 -72 75 -114 86
-52 15 -166 20 -222 10 -22 -4 -60 -10 -85 -12 -25 -3 -73 -9 -106 -13 l-62
-7 -6 39 c-8 44 -42 86 -102 126 -40 26 -187 212 -288 365 l-48 71 7 74 c4 47
19 104 41 158 60 152 69 278 29 425 -11 44 -22 102 -24 129 -3 47 -7 53 -75
120 -142 140 -302 432 -309 564 -2 29 -11 43 -52 78 -94 81 -102 89 -145 149
-59 82 -128 153 -172 176 -35 18 -98 94 -98 118 0 6 -13 12 -30 12 -16 1 -33
2 -37 3 -5 1 -37 6 -73 11 -36 5 -67 9 -70 10 -3 1 -36 5 -75 10 -38 5 -73 10
-77 11 -5 1 -18 2 -30 3 -47 3 -53 18 -63 177 -4 73 -9 91 -52 185 -23 54 -27
57 -60 56 -37 -1 -53 14 -53 50 0 22 -6 40 -42 121 -36 82 -71 271 -51 273 8
1 19 2 80 14 21 4 34 13 39 28 4 12 24 50 45 85 53 90 66 157 64 337 -2 134
-6 188 -21 315 -15 129 -59 311 -123 510 -22 69 -44 143 -50 165 -34 144 -80
285 -114 351 -23 44 -96 123 -138 150 -20 13 -63 32 -95 43 -55 18 -59 21 -69
62 -6 24 -16 43 -25 44 -8 2 -33 7 -55 13 -22 6 -51 13 -65 15 -57 10 -125 52
-142 87 -31 67 -32 79 -23 500 2 80 3 188 4 240 l1 95 83 39 c114 55 216 157
274 276 45 91 78 199 90 295 9 78 10 954 1 1068 -14 159 -15 162 -74 212 -47
41 -53 49 -50 80 10 94 -110 226 -271 299 -24 10 -41 22 -39 25 2 3 7 40 10
81 4 41 8 89 11 105 2 17 7 55 10 85 13 140 16 167 20 195 2 17 6 55 9 85 4
30 8 73 11 95 2 22 7 74 11 115 4 41 10 77 14 80 3 3 19 28 34 56 23 43 34 53
69 64 71 21 179 75 237 119 147 111 221 276 294 651 12 65 51 206 86 315 64
197 82 289 84 440 3 156 -34 285 -112 386 -108 141 -142 214 -137 301 5 75 41
133 122 198 27 21 32 34 37 83 3 31 19 88 35 125 16 37 32 87 36 112 5 37 17
56 64 105 32 33 65 72 74 86 16 24 23 26 90 26 134 1 288 58 422 156 33 24 83
56 112 71 55 30 67 50 78 124 7 41 10 45 70 74 70 33 64 25 136 211 25 64 42
93 64 109 36 25 114 116 156 183 34 53 140 263 157 310 52 143 64 367 25 490
-30 96 -41 109 -77 95 l-28 -10 6 102 c7 108 8 110 82 183 31 30 137 158 175
212 25 33 71 112 103 175 86 170 74 160 192 158 330 -5 393 -3 489 21 28 6 70
27 94 45 24 19 58 36 76 40 26 5 36 14 51 47 19 43 23 48 92 129 22 26 42 52
44 58 2 7 33 17 68 24 l65 11 3 38 c2 20 8 37 14 37 6 0 35 16 64 35 29 19 55
35 59 35 3 0 33 18 65 40 65 44 100 90 155 199 20 40 62 100 93 135 131 144
200 394 161 586 -5 25 -11 68 -15 95 -6 48 -4 53 33 94 40 47 108 113 158 153
113 93 258 193 300 208 28 10 77 32 109 50 53 30 64 33 134 30 43 -1 88 -3
102 -5 14 -2 36 -4 50 -4 20 -1 29 -9 38 -35 34 -92 250 -100 497 -18 50 16
110 40 134 53 45 24 141 112 141 130 0 5 29 9 65 9 l64 0 16 53 c13 44 21 55
46 64 17 7 111 54 208 106 97 52 203 105 236 117 132 52 189 109 244 246 18
45 50 102 71 128 46 56 68 126 121 391 11 55 14 60 38 61 85 2 119 14 306 103
170 82 253 107 381 116 l79 6 23 -38 c23 -37 30 -40 194 -93 93 -30 177 -56
186 -57 174 -35 277 -24 569 58 78 22 154 42 168 45 46 8 289 65 295 69 4 2
22 7 40 10 150 26 271 82 415 190 55 41 112 80 128 87 15 7 27 17 27 23 0 5
14 37 31 70 35 67 47 103 55 158 3 21 7 46 9 55 2 9 4 29 4 43 1 20 9 30 39
42 49 22 150 44 237 52 39 3 88 8 110 10 22 2 72 7 110 10 71 6 156 14 210 21
17 2 66 6 110 10 44 3 81 8 83 9 2 2 11 2 20 1 12 -2 17 -13 18 -38z m-4604
-737 c12 -11 19 -127 9 -152 -5 -13 -34 -50 -65 -82 -31 -33 -56 -67 -56 -77
0 -16 8 -65 25 -146 3 -12 43 -54 89 -93 l84 -72 -71 -68 c-111 -107 -124
-116 -258 -197 -97 -57 -141 -77 -189 -86 -57 -11 -64 -15 -76 -45 -8 -18 -40
-53 -71 -78 -48 -37 -63 -44 -97 -43 -23 1 -68 -2 -101 -6 -112 -15 -117 -15
-110 3 4 9 18 58 33 109 l26 93 -24 68 c-21 63 -26 68 -60 78 -20 5 -84 8
-141 6 -62 -2 -114 1 -130 7 -20 9 -33 9 -48 0 -20 -10 -21 -9 -16 17 21 113
33 135 116 219 81 81 82 82 139 86 45 3 66 11 95 34 79 62 78 62 157 63 l47 1
19 53 c24 63 56 85 130 88 49 2 54 5 66 33 26 61 63 93 163 137 149 65 161 68
238 62 39 -3 73 -8 77 -12z m11618 -86 c25 -3 70 -8 100 -11 128 -14 315 -120
371 -210 18 -30 36 -39 99 -50 54 -10 189 -85 259 -144 71 -60 75 -62 120 -58
l47 5 41 -96 c22 -53 39 -101 36 -106 -7 -21 -45 -36 -101 -40 -46 -4 -108
-15 -172 -30 -3 -1 -20 -5 -39 -9 l-34 -8 6 -92 c4 -78 10 -102 41 -166 20
-41 38 -93 42 -116 l5 -40 -78 2 c-43 1 -84 2 -91 3 -6 1 -47 37 -90 82 -112
117 -126 125 -227 133 -26 2 -30 7 -30 31 0 23 -10 37 -50 66 -55 43 -43 36
-293 153 -101 47 -189 86 -197 86 -7 0 -20 19 -29 43 -31 88 -35 81 57 102 45
10 87 20 93 21 43 8 51 17 78 98 32 93 31 103 -14 199 -16 34 -30 85 -32 114
-4 47 -3 51 16 47 12 -1 41 -6 66 -9z m-14454 -1957 c-4 -40 -9 -74 -11 -77
-2 -4 -6 -42 -9 -85 -6 -77 -5 -80 22 -103 61 -54 59 -54 339 -62 21 -1 20 -4
-21 -98 -43 -96 -44 -98 -93 -118 -75 -30 -200 -147 -230 -213 -13 -29 -24
-61 -26 -70 -4 -29 -52 -84 -122 -142 -37 -30 -78 -74 -92 -97 -19 -33 -40
-50 -94 -77 -60 -30 -214 -75 -224 -65 -2 2 7 43 20 90 24 90 25 139 4 241
-11 55 -13 58 -38 53 -14 -2 -76 -7 -137 -10 -61 -3 -130 -7 -153 -10 l-43 -4
6 42 c3 23 6 65 7 93 l2 52 84 48 c77 44 84 51 99 96 14 42 41 73 186 216 226
221 227 222 265 222 23 0 27 8 38 74 7 44 23 54 100 61 39 4 71 8 72 9 1 1 14
3 29 4 l26 2 -6 -72z m17197 21 c73 -18 166 -52 223 -80 12 -6 46 -36 75 -66
30 -30 88 -90 130 -132 55 -55 78 -86 83 -111 13 -63 17 -69 49 -79 18 -6 47
-26 65 -44 48 -46 163 -242 183 -311 l8 -29 -87 8 c-89 9 -201 9 -237 1 -11
-2 -27 -5 -36 -5 -16 -1 -20 -21 -35 -166 -2 -22 3 -67 10 -100 25 -103 26
-99 -19 -99 -62 1 -132 14 -143 27 -5 7 -19 39 -30 72 -20 58 -21 60 -59 63
-56 5 -117 56 -363 302 -227 226 -251 257 -270 359 -17 89 -14 100 18 96 15
-2 82 -6 147 -10 139 -7 174 -12 193 -27 9 -8 16 -8 24 0 7 7 9 12 6 12 -3 0
1 26 8 58 20 84 17 140 -11 212 -14 35 -25 65 -25 67 0 5 10 3 93 -18z m2137
-2415 c8 -1 17 -3 20 -3 3 -1 -1 -5 -9 -10 -37 -23 55 -198 106 -202 16 -2 20
-3 54 -12 14 -3 26 -12 26 -19 1 -50 18 -98 48 -136 32 -41 40 -63 47 -131 3
-19 14 -27 66 -43 l64 -19 30 -67 c17 -37 63 -126 103 -197 85 -150 120 -257
110 -333 -12 -95 -6 -89 -105 -91 -81 -2 -89 0 -104 21 -9 13 -16 43 -16 69 0
46 -8 68 -44 122 -15 22 -25 27 -60 26 -22 0 -61 -8 -85 -17 l-45 -17 -1 -95
c-3 -149 -16 -272 -32 -307 -12 -27 -19 -31 -41 -28 -15 2 -43 7 -62 10 -27 4
-38 12 -49 37 -8 17 -47 68 -86 112 -70 79 -72 83 -79 146 -7 64 -17 85 -81
180 -54 81 -96 162 -108 212 -5 17 -24 37 -57 57 -62 38 -122 126 -150 223
-16 53 -25 68 -40 68 -27 0 -39 28 -34 80 10 107 29 132 95 124 73 -9 113 -28
132 -65 10 -19 22 -33 27 -32 5 2 39 5 76 9 75 6 105 11 112 18 3 3 6 57 7
119 3 110 12 151 47 194 8 10 57 9 118 -3z m-21443 -56 c-3 -24 -9 -66 -12
-95 -10 -68 0 -114 30 -149 14 -16 25 -39 25 -50 0 -12 7 -28 16 -35 22 -18
133 -15 209 5 58 16 69 19 128 32 28 6 28 5 23 -28 -12 -70 -38 -155 -61 -194
-22 -37 -111 -127 -134 -136 -6 -1 -13 -19 -16 -38 -5 -30 -24 -73 -80 -180
-8 -14 -17 -45 -20 -70 -10 -65 -51 -135 -99 -166 -22 -15 -70 -58 -105 -96
-35 -37 -67 -68 -70 -68 -3 0 -14 26 -25 58 -34 103 -107 182 -199 213 -45 15
-55 15 -91 3 -22 -8 -56 -24 -76 -36 -43 -25 -110 -50 -111 -40 0 4 -2 18 -4
32 -1 14 -4 59 -6 100 l-4 75 43 23 c36 20 50 37 83 104 22 44 76 140 118 212
99 165 115 198 136 269 10 36 30 72 51 95 26 28 34 44 31 65 -3 22 3 32 24 48
15 10 30 19 33 19 3 0 27 13 55 29 42 25 62 33 105 40 4 0 6 -18 3 -41z
m22783 -2904 c68 -20 142 -93 188 -188 74 -150 193 -582 209 -758 4 -46 2 -58
-9 -58 -12 0 -14 -23 -10 -132 2 -73 1 -152 -3 -175 l-6 -41 -59 0 -60 1 0 44
c0 38 -6 51 -33 78 -32 32 -36 33 -98 30 -35 -3 -80 -9 -99 -15 -19 -5 -59
-10 -88 -10 l-52 0 15 -23 c8 -13 13 -25 11 -28 -2 -2 -7 -38 -11 -79 -4 -41
-11 -79 -15 -84 -5 -5 -29 -1 -57 10 -43 17 -51 26 -80 84 -17 35 -31 67 -30
70 0 3 -2 19 -6 35 -4 17 -9 45 -12 62 -3 18 -14 79 -26 135 -11 57 -22 121
-25 143 -3 22 -27 83 -54 135 -50 100 -87 204 -97 280 -8 59 -8 239 1 247 9 9
112 -25 130 -43 9 -8 20 -22 25 -31 9 -16 57 -20 116 -8 11 2 34 4 51 4 31 1
32 3 48 74 49 217 59 257 70 257 7 0 36 -7 66 -16z m-24225 -131 c28 -165 93
-239 228 -257 l47 -7 33 47 c67 99 147 164 198 164 12 0 11 -172 -1 -248 -6
-34 -21 -97 -35 -140 -13 -42 -27 -92 -30 -111 -3 -19 -8 -37 -10 -40 -2 -4
-6 -47 -9 -96 -9 -133 -13 -170 -37 -282 -24 -120 -88 -243 -159 -307 -38 -34
-98 -66 -125 -66 -8 0 -24 27 -37 60 -12 33 -26 60 -30 60 -5 0 -8 8 -9 18 -2
32 -54 117 -72 116 -9 -1 -53 -2 -97 -3 -71 -1 -84 -4 -105 -25 -13 -13 -49
-33 -79 -45 l-54 -20 3 112 c4 132 27 252 95 512 28 105 53 200 56 212 2 12 9
34 14 48 5 14 7 25 4 25 -2 0 0 8 5 18 6 11 12 30 15 43 6 29 57 213 60 216 2
3 107 31 118 32 4 1 10 -16 13 -36z m24842 -3155 c68 -58 102 -99 120 -146 16
-43 18 -91 18 -552 l0 -505 -23 -57 c-24 -60 -91 -137 -143 -163 l-28 -15 -30
64 c-17 35 -31 74 -31 87 0 29 -49 116 -83 147 -20 19 -32 22 -58 17 -19 -3
-36 -5 -39 -4 -3 2 -33 -16 -67 -39 -34 -23 -74 -47 -88 -52 -25 -9 -26 -13
-20 -58 5 -44 3 -50 -30 -90 -40 -46 -57 -48 -46 -5 5 17 1 38 -11 63 -24 47
-57 162 -64 220 -3 24 -7 47 -9 50 -7 11 -18 182 -18 290 0 107 8 260 17 307
3 11 7 44 11 74 7 60 59 271 73 295 7 13 25 -2 86 -73 87 -98 118 -121 185
-139 38 -9 52 -9 77 4 33 15 60 52 68 93 2 13 19 62 36 109 17 47 33 91 36 98
6 19 20 14 61 -20z m-25432 -98 c14 -27 25 -54 25 -60 0 -23 45 -77 89 -107
33 -23 62 -33 106 -38 33 -4 67 -8 75 -11 8 -2 22 1 30 6 12 7 12 12 2 22 -23
23 -13 55 28 92 30 27 40 44 40 66 0 34 20 46 72 45 26 -1 33 -6 40 -30 9 -37
16 -1111 7 -1127 -5 -7 -29 0 -75 24 -64 32 -69 37 -75 73 -12 73 -56 87 -188
62 l-64 -13 -61 -101 c-70 -118 -71 -118 -122 -8 -30 66 -54 175 -69 305 -6
61 -7 407 0 485 2 28 7 84 10 125 9 116 17 184 22 193 2 4 18 7 35 7 21 0 31
6 35 20 3 11 7 20 9 20 2 0 15 -22 29 -50z m739 -3051 c21 -6 56 -23 78 -39
22 -16 44 -30 49 -32 5 -2 11 -44 14 -95 2 -50 11 -122 20 -160 9 -37 18 -77
21 -89 2 -11 26 -90 54 -175 70 -213 72 -224 100 -379 17 -95 25 -276 13 -306
-7 -20 -63 2 -102 40 l-36 35 -113 4 c-106 4 -115 3 -134 -17 -31 -33 -46 -69
-57 -133 -11 -69 -35 -133 -51 -133 -8 0 -168 76 -178 85 -3 2 -36 131 -72
275 -10 41 -47 183 -81 315 -64 245 -64 246 -54 410 1 28 3 97 4 154 l1 104
20 -26 c11 -14 20 -29 20 -34 1 -17 58 -75 92 -93 30 -15 51 -18 144 -14 158
7 159 9 163 272 1 47 12 51 85 31z m23998 -154 c28 -109 57 -163 99 -186 18
-9 72 -7 154 7 6 1 16 2 22 3 7 0 31 25 54 54 40 50 72 76 95 77 8 0 11 -57 9
-197 -2 -197 -2 -199 -37 -308 -32 -98 -40 -133 -53 -224 -2 -13 -13 -50 -25
-81 -20 -52 -25 -59 -56 -65 -39 -7 -39 -8 -18 -95 l15 -65 -76 -71 c-70 -67
-100 -82 -116 -60 -4 5 -3 21 1 37 5 15 7 35 6 43 -4 26 -38 56 -63 56 -35 0
-63 18 -63 39 0 25 -61 61 -92 55 -97 -20 -124 -34 -225 -116 l-72 -58 -3 42
c-6 80 12 209 41 296 43 127 63 212 56 231 -4 9 -9 35 -12 59 -6 46 8 72 37
72 16 0 18 9 14 93 -6 159 43 305 130 391 42 42 120 87 141 82 5 -1 22 -51 37
-111z m-22875 -2851 c54 -20 94 -62 165 -175 85 -138 140 -251 146 -306 4 -34
18 -68 51 -118 63 -97 71 -112 92 -175 10 -30 31 -91 47 -135 32 -87 45 -152
33 -159 -4 -3 -41 4 -82 15 -82 22 -177 26 -209 9 -29 -16 -52 -66 -50 -113 1
-23 1 -97 1 -165 l-1 -124 -27 6 c-16 4 -42 8 -60 10 -84 11 -162 86 -212 206
-13 30 -38 78 -56 105 -65 100 -132 212 -174 290 -54 101 -57 103 -95 110 -26
5 -39 19 -83 93 -101 169 -121 231 -108 346 9 87 17 95 95 100 82 5 107 -5
125 -49 23 -52 55 -69 143 -71 120 -2 113 -10 106 125 -10 179 -10 201 -7 205
6 6 119 -15 160 -30z m21800 -105 c2 -133 8 -161 39 -189 21 -20 34 -24 83
-23 63 1 121 24 121 48 0 8 9 24 21 36 17 17 31 20 105 18 100 -2 100 -2 90
-129 -18 -209 -116 -410 -266 -541 -34 -30 -72 -74 -86 -99 -13 -25 -30 -54
-37 -65 -6 -11 -46 -74 -89 -140 -44 -69 -83 -144 -93 -176 -15 -55 -17 -57
-56 -63 -37 -6 -41 -9 -36 -32 l4 -24 -77 1 -78 1 4 57 c13 180 13 185 -8 232
-18 42 -26 49 -71 63 -85 27 -134 17 -199 -44 -22 -20 -99 -50 -130 -50 -20 0
-22 12 -19 95 6 161 153 447 302 591 45 42 65 70 67 90 2 16 12 38 22 49 10
11 26 49 35 85 22 87 34 107 100 170 31 30 58 65 61 77 9 34 34 50 94 60 100
16 95 21 97 -98z m-20005 -2464 c22 -5 33 -16 45 -46 11 -28 27 -46 52 -59 51
-26 97 -74 134 -141 20 -37 43 -63 62 -72 46 -22 139 -111 175 -166 22 -36 40
-52 61 -56 27 -6 99 -55 139 -94 29 -28 119 -141 132 -164 11 -21 48 -179 43
-185 -2 -2 -95 -9 -250 -16 -33 -2 -70 0 -83 5 -23 9 -23 8 -18 -54 9 -103 18
-230 20 -267 l1 -35 -107 -1 c-117 -1 -123 2 -113 56 9 49 -134 185 -237 227
-37 15 -37 16 -34 61 3 52 -1 72 -16 72 -26 0 -122 76 -173 139 -80 97 -162
153 -236 162 -31 4 -69 15 -83 25 -34 25 -56 101 -52 179 2 33 4 73 5 89 l1
28 58 -4 c33 -3 88 -18 129 -37 48 -21 94 -33 145 -37 l75 -6 7 28 c8 32 10
147 2 172 -3 9 -8 28 -10 42 -3 14 -10 45 -15 70 -19 85 -18 85 50 88 34 2 75
0 91 -3z m18108 -195 c-7 -30 -12 -75 -10 -100 1 -25 3 -55 3 -67 1 -15 7 -23
22 -23 11 -1 34 -1 50 -2 26 -2 103 7 155 17 9 2 41 6 70 10 29 4 61 8 70 10
9 2 39 6 66 9 l49 7 3 -55 c3 -58 -33 -200 -48 -191 -15 9 -38 -6 -63 -43 -34
-51 -65 -84 -112 -118 -22 -16 -107 -97 -190 -179 -143 -144 -166 -162 -226
-184 -22 -8 -29 -20 -44 -80 -16 -67 -20 -72 -64 -99 -38 -24 -239 -92 -270
-92 -6 0 -8 8 -7 18 2 9 7 46 11 82 9 75 10 81 24 175 6 39 11 75 11 81 0 31
-194 48 -338 31 -63 -8 -64 -8 -57 15 27 84 51 133 91 175 25 26 59 74 77 106
26 47 36 57 57 56 44 -2 52 1 47 15 -4 10 20 41 62 83 37 37 78 87 89 109 24
48 133 146 139 127 3 -7 16 -13 29 -13 19 0 24 5 25 28 2 34 2 34 -6 52 -7 20
57 52 190 95 115 37 115 37 95 -55z m-2426 -1947 c-1 -21 -5 -108 -8 -194 -7
-186 -24 -169 172 -175 155 -6 185 -13 178 -46 -3 -13 -8 -45 -11 -73 -3 -27
-8 -52 -11 -54 -2 -3 -20 -6 -40 -7 -26 -1 -43 -10 -67 -36 -73 -79 -249 -186
-351 -212 -33 -9 -63 -19 -66 -23 -3 -5 -23 -30 -45 -58 -54 -69 -65 -79 -127
-114 -58 -33 -189 -81 -220 -81 -20 0 -30 -17 -32 -53 -1 -17 -13 -25 -61 -40
-60 -19 -210 -27 -234 -13 -7 5 -10 31 -8 75 3 57 9 76 37 119 33 51 35 52 82
52 44 0 48 2 48 24 0 14 -4 35 -9 49 -5 13 -12 41 -15 63 -13 79 -10 77 -111
89 -27 4 -61 8 -75 10 -147 21 -174 26 -178 29 -10 10 65 162 94 192 38 38
156 79 198 68 22 -5 25 -2 31 30 10 49 77 89 152 90 51 1 52 2 80 49 25 43 42
57 158 122 155 87 212 111 325 135 123 25 118 26 114 -17z m-12948 -98 c47
-21 67 -36 83 -65 24 -42 72 -78 151 -113 31 -14 96 -49 145 -79 97 -58 167
-93 208 -103 19 -5 35 -24 56 -65 l31 -59 -112 -58 c-121 -62 -188 -117 -188
-152 0 -12 9 -47 21 -79 38 -105 68 -202 61 -203 -8 -2 -47 -5 -136 -10 l-59
-4 -22 40 c-30 52 -67 80 -195 148 -58 30 -152 83 -210 117 -203 120 -363 203
-368 190 -5 -14 -102 31 -121 56 -18 23 -20 51 -12 165 1 14 8 15 44 9 23 -5
65 -11 92 -14 47 -6 69 -9 139 -21 16 -2 38 1 49 6 14 8 26 8 43 0 20 -9 24
-8 25 7 0 9 3 51 5 94 4 69 -3 118 -33 233 -3 11 -7 32 -10 46 l-5 26 129 -42
c70 -23 156 -54 189 -70z m9987 -1209 c41 -6 110 -43 124 -65 11 -18 8 -21
-30 -33 -40 -13 -42 -15 -59 -78 -27 -104 -30 -184 -7 -237 15 -35 18 -57 13
-94 l-7 -49 77 6 c42 3 76 2 76 -2 0 -5 -9 -23 -19 -41 -11 -17 -25 -50 -32
-73 -9 -28 -15 -37 -21 -28 -7 10 -11 9 -21 -4 -9 -11 -18 -14 -27 -8 -10 6
-20 -1 -35 -28 -28 -50 -66 -67 -241 -102 -82 -17 -198 -46 -259 -65 -209 -65
-289 -80 -435 -78 -71 0 -223 13 -229 18 -7 7 32 102 58 141 17 26 44 47 78
63 60 28 74 53 75 130 0 105 -46 135 -242 156 -30 3 -59 10 -64 15 -14 14 43
120 87 162 35 34 152 98 179 98 6 0 41 9 77 20 36 10 77 21 91 24 61 11 248
58 347 87 216 63 342 81 446 65z m-7262 -40 c13 -3 40 -8 59 -10 19 -2 53 -9
75 -15 22 -5 54 -12 70 -15 17 -3 107 -28 200 -54 170 -49 298 -77 388 -86 27
-2 54 -11 60 -19 12 -14 116 -77 149 -90 14 -5 15 -11 6 -44 -6 -21 -21 -47
-33 -59 -46 -43 -114 -86 -127 -81 -7 2 -22 -10 -34 -29 -18 -30 -20 -41 -12
-96 5 -35 10 -76 12 -93 3 -28 10 -33 88 -64 85 -34 86 -34 76 -62 -6 -19 -6
-34 1 -48 10 -19 6 -22 -56 -41 -65 -21 -162 -27 -224 -15 -13 3 -46 8 -74 11
-57 6 -291 50 -345 64 -19 5 -46 11 -60 14 -102 20 -317 94 -425 147 -141 69
-226 149 -241 227 l-7 33 109 -2 c95 -2 114 0 151 19 63 33 69 47 72 171 l2
109 -31 22 c-25 18 -70 92 -70 116 0 6 190 -3 221 -10z m3919 -450 c31 -3 70
-10 88 -15 18 -5 32 -8 32 -6 0 7 104 -35 143 -59 81 -49 81 -49 62 -90 -11
-23 -48 -60 -98 -99 -44 -34 -89 -77 -99 -96 l-19 -33 49 -82 48 -81 60 0 c55
0 63 -3 97 -35 l37 -35 -54 -60 c-98 -111 -185 -139 -411 -136 -153 3 -364 3
-575 1 -132 -2 -159 1 -248 21 -86 19 -172 82 -208 150 -14 28 -14 29 27 59
23 16 46 30 51 30 50 0 228 77 228 99 0 31 -25 132 -41 163 -24 46 -45 58
-103 58 -38 0 -52 6 -81 33 -19 17 -37 43 -40 57 -5 23 -1 27 52 46 54 19 58
23 59 53 0 21 7 37 18 43 10 6 139 12 294 15 152 2 278 5 279 7 5 5 300 -2
353 -8z"/>
<path d="M14588 21665 c-2 -2 -28 -5 -58 -6 -58 -3 -164 -25 -190 -39 -27 -15
109 -63 214 -76 103 -12 129 -31 151 -109 26 -93 28 -158 31 -980 2 -451 5
-860 8 -910 7 -122 8 -420 1 -475 -15 -119 -66 -221 -132 -264 -21 -13 -91
-46 -155 -72 -65 -26 -118 -50 -118 -53 0 -3 44 -6 98 -7 88 0 398 -11 562
-19 91 -5 601 -5 685 0 39 2 104 6 145 9 72 6 91 8 190 21 48 7 181 30 215 38
397 95 618 256 705 517 33 96 38 304 10 418 -38 160 -115 274 -246 365 -82 57
-237 127 -314 142 -8 2 -16 4 -18 4 -3 1 46 43 73 63 112 84 198 155 231 189
82 86 132 188 151 304 13 79 5 248 -16 326 -19 73 -70 188 -95 215 -6 7 -28
33 -50 58 -127 152 -386 260 -726 302 -123 15 -95 13 -685 30 -310 9 -662 14
-667 9z m1225 -195 c110 -23 201 -49 224 -62 126 -73 214 -168 283 -305 171
-342 38 -642 -341 -763 -49 -16 -109 -32 -132 -35 -23 -4 -44 -8 -47 -10 -39
-23 -603 -25 -627 -1 -3 2 -4 127 -3 278 3 636 8 880 16 887 12 12 163 41 244
48 36 3 66 7 68 8 11 9 161 -12 315 -45z m-233 -1325 c158 -17 402 -87 559
-162 120 -57 178 -113 231 -225 98 -205 103 -437 15 -609 -83 -160 -270 -275
-515 -314 -80 -13 -365 -12 -472 2 -199 25 -228 32 -229 52 0 9 -3 61 -7 116
-9 143 -8 850 1 915 27 193 40 211 177 227 25 3 46 7 48 8 4 4 117 -3 192 -10z"/>
<path d="M10799 21476 c-80 -34 -214 -108 -286 -157 -23 -16 -44 -29 -47 -29
-8 0 -283 -187 -466 -318 -246 -176 -358 -261 -490 -372 -169 -141 -176 -145
-204 -127 -13 9 -26 26 -29 39 -2 13 -12 50 -21 83 -8 33 -18 75 -21 94 -9 56
-44 151 -81 226 -108 213 -290 374 -523 461 -133 50 -228 67 -396 70 -291 6
-546 -67 -780 -224 -187 -125 -301 -278 -362 -484 -23 -79 -27 -112 -27 -223
-1 -71 2 -150 6 -174 46 -268 212 -523 440 -674 104 -69 176 -98 303 -123 11
-2 56 -11 100 -19 140 -27 235 -59 235 -80 0 -32 -125 -180 -330 -388 -371
-379 -477 -494 -634 -687 -37 -46 -132 -197 -156 -248 l-24 -54 24 -46 c36
-68 172 -201 256 -251 l71 -42 79 35 c267 118 516 282 1179 777 316 236 412
303 492 344 l48 25 105 -103 c58 -57 202 -183 320 -282 118 -98 222 -185 231
-194 63 -62 271 -251 409 -371 91 -79 167 -146 170 -149 3 -4 37 -33 75 -66
39 -33 72 -62 75 -65 3 -3 54 -48 115 -100 60 -52 123 -106 139 -120 16 -14
36 -32 45 -40 9 -9 48 -43 86 -75 39 -33 72 -62 75 -65 3 -3 37 -33 75 -66
224 -194 334 -290 365 -318 20 -17 67 -58 105 -90 39 -33 75 -64 80 -70 6 -6
42 -38 80 -71 39 -33 79 -68 90 -79 11 -10 67 -57 124 -105 142 -117 256 -214
317 -270 49 -45 185 -166 208 -186 7 -5 43 -39 81 -75 39 -36 117 -108 174
-160 57 -52 120 -110 140 -129 20 -18 74 -68 120 -110 46 -42 89 -81 95 -86 6
-6 61 -53 121 -105 61 -52 112 -98 115 -101 3 -4 46 -32 95 -64 68 -44 126
-95 235 -207 80 -83 183 -182 230 -221 77 -65 228 -195 240 -207 17 -17 161
-139 250 -212 58 -47 116 -96 130 -108 28 -24 177 -159 194 -175 6 -6 54 -48
106 -94 52 -46 111 -98 130 -115 19 -17 82 -71 140 -120 58 -49 179 -164 270
-256 91 -92 242 -234 335 -316 94 -81 184 -160 200 -175 17 -15 71 -62 120
-105 50 -44 106 -93 125 -110 19 -17 78 -69 130 -114 52 -46 127 -111 165
-145 39 -34 113 -99 165 -145 52 -45 111 -96 130 -114 32 -29 245 -216 314
-276 16 -14 34 -30 40 -35 82 -76 197 -172 261 -219 44 -33 100 -77 125 -100
25 -23 88 -79 140 -126 52 -47 117 -105 145 -130 27 -25 52 -47 55 -50 3 -3
50 -46 105 -95 55 -49 118 -106 140 -126 22 -21 51 -47 65 -59 14 -12 59 -52
100 -89 41 -37 149 -135 240 -216 91 -82 167 -151 170 -154 3 -3 41 -37 85
-76 44 -38 87 -77 95 -85 8 -8 53 -49 100 -90 47 -41 94 -84 105 -95 12 -11
56 -51 100 -90 152 -133 170 -151 350 -331 99 -100 223 -216 275 -259 185
-153 461 -416 645 -615 180 -196 257 -284 389 -444 254 -309 427 -572 506
-769 52 -130 61 -217 30 -280 -22 -43 -95 -127 -155 -177 -118 -98 -361 -218
-585 -288 -159 -49 -264 -78 -320 -89 -14 -2 -53 -10 -88 -18 -34 -8 -77 -17
-95 -20 -17 -3 -39 -8 -47 -10 -8 -2 -35 -7 -60 -10 -25 -3 -52 -8 -60 -10 -8
-3 -37 -7 -65 -10 -27 -3 -59 -7 -70 -9 -11 -2 -54 -7 -95 -11 -41 -4 -82 -8
-90 -10 -53 -10 -246 -18 -433 -19 -241 0 -239 -1 -231 63 10 85 36 151 111
276 39 67 45 85 29 85 -14 0 -221 -35 -266 -45 -14 -4 -36 -8 -50 -11 -14 -2
-31 -7 -39 -10 -8 -2 -30 -7 -50 -10 -20 -3 -47 -9 -61 -14 -30 -10 -332 -75
-415 -89 -124 -21 -248 -35 -410 -46 -38 -3 -90 -7 -115 -10 -25 -2 -79 -7
-120 -10 -164 -13 -420 -58 -420 -74 0 -8 100 -99 180 -163 86 -69 246 -180
355 -247 55 -34 107 -66 115 -71 92 -58 388 -203 530 -260 150 -60 334 -119
425 -136 11 -2 40 -8 65 -13 70 -16 107 -20 224 -28 l108 -6 -12 23 c-7 13
-34 53 -59 89 -57 79 -94 142 -116 195 l-16 39 133 -7 c73 -3 144 -8 158 -10
14 -3 57 -7 95 -10 39 -3 79 -8 90 -10 11 -2 52 -7 90 -10 39 -4 81 -9 95 -11
150 -22 524 -34 640 -20 19 2 71 6 115 10 44 3 87 8 95 10 8 2 46 6 83 10 37
3 76 8 85 10 22 4 86 14 137 21 22 3 59 10 83 15 23 5 59 12 80 15 20 3 45 7
54 10 23 7 57 14 93 20 17 3 84 19 150 36 66 16 127 31 135 33 8 2 79 19 157
39 329 83 678 152 858 170 28 3 74 7 103 11 28 3 73 7 100 10 254 25 859 25
1171 0 l54 -5 -7 138 c-4 76 -9 151 -10 167 -27 221 -27 852 -1 895 2 3 6 21
9 40 11 66 14 78 80 251 53 139 130 406 161 559 2 8 15 65 29 125 15 61 41
169 58 240 16 72 57 238 90 369 70 285 85 355 95 444 14 125 8 436 -12 552 -2
14 -11 75 -20 135 -22 149 -20 135 -45 275 -28 155 -28 155 -13 153 6 -1 93
-43 194 -93 l182 -91 -6 103 c-4 57 -9 117 -12 133 -30 158 -80 285 -171 433
-116 188 -218 359 -252 419 -44 78 -229 299 -376 451 -116 119 -233 222 -253
222 -5 0 -10 -21 -10 -47 -1 -52 -10 -179 -18 -258 -28 -254 -67 -455 -156
-810 -74 -293 -61 -239 -105 -438 -21 -92 -35 -169 -33 -172 3 -2 105 32 227
77 123 44 225 79 227 76 9 -9 19 -156 19 -298 0 -170 -12 -368 -29 -460 -3
-14 -10 -54 -15 -89 -62 -379 -231 -778 -468 -1106 -36 -49 -85 -117 -108
-151 l-43 -60 -53 2 c-278 10 -482 51 -613 124 -27 16 -68 38 -90 50 -64 36
-279 166 -435 263 -395 247 -737 484 -860 598 -25 23 -63 58 -85 78 -22 20
-96 84 -165 141 -69 58 -127 107 -130 110 -17 17 -134 111 -255 205 -136 105
-297 241 -364 305 -9 9 -47 43 -86 75 -38 33 -74 65 -80 71 -5 7 -55 51 -110
99 -103 90 -230 202 -249 220 -6 6 -47 41 -91 80 -44 38 -82 72 -85 75 -5 5
-242 216 -299 266 -18 16 -43 38 -55 49 -28 25 -107 90 -155 128 -20 15 -65
56 -101 91 -36 34 -119 109 -185 166 -66 58 -122 107 -125 110 -3 3 -70 61
-150 129 -80 68 -149 129 -155 135 -5 6 -57 51 -115 101 -58 49 -107 92 -110
95 -3 3 -37 34 -75 70 -39 36 -138 128 -220 206 -83 78 -163 153 -180 168 -16
15 -62 58 -101 94 -38 37 -119 112 -178 167 -160 148 -136 126 -326 296 -95
85 -288 250 -430 366 -41 34 -91 77 -111 95 -32 29 -178 162 -247 225 -115
105 -198 180 -212 193 -15 13 -152 138 -229 209 -14 12 -62 55 -105 95 -44 39
-91 82 -106 96 -15 14 -64 59 -110 100 -46 41 -88 80 -94 85 -6 6 -65 59 -131
119 -66 60 -169 155 -230 211 -151 140 -210 189 -435 357 -107 81 -204 155
-215 165 -11 10 -36 31 -55 47 -19 16 -76 67 -126 115 -50 47 -129 120 -174
161 -46 41 -88 80 -94 85 -14 13 -304 275 -326 295 -9 8 -52 47 -96 87 -43 39
-89 80 -100 90 -12 10 -66 59 -120 109 -55 50 -173 158 -264 240 -91 81 -170
153 -176 159 -6 5 -48 44 -94 85 -46 41 -95 86 -109 99 -14 13 -59 53 -100 90
-40 36 -85 77 -100 91 -14 14 -49 45 -76 69 -28 24 -75 67 -105 95 -30 28 -95
87 -145 131 -49 44 -97 87 -105 95 -8 8 -60 56 -115 105 -55 50 -102 92 -105
95 -3 3 -72 66 -155 140 -82 74 -157 142 -165 150 -13 13 -148 136 -265 241
-84 75 -280 253 -291 263 -6 6 -44 40 -84 76 -40 36 -87 79 -105 95 -17 17
-72 66 -121 110 -126 114 -192 173 -247 225 l-48 46 121 154 c67 85 129 164
138 175 10 11 31 38 47 59 47 62 75 87 120 106 48 21 66 37 155 140 63 72 114
131 135 154 6 6 55 63 110 126 55 63 102 117 105 120 16 15 146 177 203 252
76 101 158 234 183 297 l17 44 -84 81 c-102 98 -253 216 -277 216 -9 0 -51
-15 -93 -34z m-2443 -549 c344 -116 462 -536 217 -771 -86 -83 -236 -149 -365
-162 -219 -21 -439 100 -535 294 -37 73 -38 80 -38 181 0 94 3 112 26 161 112
236 450 380 695 297z"/>
<path d="M20390 21420 c-144 -103 -244 -202 -235 -233 53 -178 280 -471 715
-920 350 -362 418 -434 512 -546 48 -57 88 -109 88 -116 0 -6 -19 -25 -43 -42
-23 -17 -85 -75 -137 -129 -144 -148 -180 -183 -265 -259 -43 -38 -90 -81
-104 -93 -14 -13 -53 -47 -85 -75 -33 -29 -64 -57 -70 -62 -6 -6 -60 -55 -121
-109 -153 -137 -276 -248 -295 -266 -16 -15 -153 -137 -219 -195 -19 -16 -41
-37 -50 -45 -9 -9 -54 -49 -100 -90 -47 -41 -97 -86 -111 -100 -15 -14 -60
-54 -100 -90 -41 -36 -97 -86 -124 -111 -28 -26 -67 -59 -86 -75 -19 -16 -39
-34 -45 -40 -5 -7 -59 -56 -120 -109 -120 -107 -174 -155 -250 -224 -53 -48
-144 -130 -335 -301 -63 -57 -131 -117 -150 -134 -50 -46 -228 -205 -274 -246
-22 -19 -47 -42 -56 -50 -9 -8 -76 -69 -150 -135 -74 -66 -137 -122 -140 -125
-5 -6 -174 -157 -229 -205 -19 -17 -39 -35 -45 -41 -6 -5 -58 -52 -116 -104
-58 -51 -107 -96 -110 -99 -3 -3 -25 -24 -50 -45 -57 -50 -209 -186 -230 -207
-9 -9 -97 -85 -196 -170 -98 -84 -181 -156 -184 -159 -3 -3 -32 -27 -65 -55
-234 -195 -538 -481 -617 -579 l-39 -49 59 -61 c189 -194 354 -358 402 -397
76 -63 187 -139 203 -139 26 0 252 168 343 255 11 11 41 37 65 59 24 21 65 58
90 82 26 23 86 78 135 120 49 42 114 100 145 128 31 28 98 89 149 136 51 47
98 90 104 95 6 6 56 51 110 100 55 50 107 97 116 105 9 8 52 47 95 86 44 40
92 83 106 95 138 128 227 207 284 254 163 134 232 194 315 275 52 50 133 126
179 168 47 43 94 86 105 97 12 11 55 50 96 85 41 36 80 70 86 75 76 68 479
411 659 560 66 55 131 109 145 121 33 29 113 95 136 114 101 80 836 705 929
789 22 20 76 68 120 106 75 66 170 154 254 236 20 19 90 93 155 163 211 226
320 321 431 378 77 40 80 40 143 0 99 -63 132 -86 297 -211 635 -483 810 -608
1028 -736 124 -72 261 -136 351 -164 127 -39 109 -46 232 96 60 69 115 132
122 139 17 17 15 42 -7 105 -36 106 -105 218 -215 354 -42 50 -249 289 -266
305 -3 3 -25 30 -49 60 -25 30 -154 164 -288 298 -133 133 -253 261 -267 285
-28 48 -43 92 -29 84 6 -4 27 -1 49 5 21 5 48 12 59 13 11 2 43 8 70 15 28 6
55 13 60 14 155 37 354 124 488 213 428 284 515 779 215 1226 -88 132 -275
295 -428 372 -53 27 -170 74 -200 80 -8 2 -37 9 -65 15 -125 29 -327 34 -450
10 -225 -42 -471 -162 -622 -303 -149 -140 -214 -264 -258 -491 -13 -69 -57
-176 -72 -176 -21 0 -479 327 -787 563 -212 163 -532 362 -671 420 -108 44
-100 46 -225 -43z m2985 -485 c221 -45 389 -257 387 -487 0 -76 -40 -194 -78
-234 -6 -7 -21 -25 -35 -40 -34 -41 -89 -80 -157 -113 -225 -111 -497 -73
-666 92 -146 143 -181 332 -97 522 46 105 84 134 260 205 158 63 269 79 386
55z"/>
<path d="M21977 15984 c-1 -1 -30 -4 -65 -7 -200 -19 -383 -110 -504 -251
-115 -134 -212 -398 -202 -547 14 -196 71 -322 219 -478 130 -137 283 -244
645 -451 342 -196 463 -276 563 -375 211 -206 218 -479 17 -676 -194 -188
-484 -234 -760 -119 -120 50 -241 132 -333 226 -43 45 -113 165 -121 211 -9
45 -70 243 -92 299 -23 55 -27 61 -54 61 -17 0 -30 -5 -31 -11 0 -6 -3 -20 -5
-31 -5 -18 -7 -438 -5 -818 l1 -128 48 26 c35 19 52 36 61 60 6 18 21 45 33
60 20 25 25 27 72 21 28 -4 65 -11 81 -17 33 -10 252 -73 331 -94 210 -57 448
-76 600 -49 293 54 566 282 660 552 13 38 26 86 30 107 3 21 8 47 10 59 10 45
4 176 -10 244 -49 234 -192 409 -478 586 -59 36 -110 66 -113 66 -3 0 -22 11
-43 23 -20 13 -64 39 -97 57 -104 58 -138 76 -235 130 -52 29 -146 86 -209
127 -338 223 -476 426 -422 619 16 60 80 153 142 207 145 127 364 167 593 108
139 -37 272 -111 370 -208 77 -76 102 -127 162 -328 30 -101 83 -235 94 -235
3 0 16 17 28 38 26 47 40 131 36 214 -2 35 -6 212 -8 393 -2 182 -5 331 -5
333 -1 1 -6 2 -13 2 -20 0 -77 -49 -107 -94 -49 -70 -65 -77 -136 -55 -199 63
-339 100 -469 123 -52 9 -273 25 -279 20z"/>
<path d="M8342 15915 c-4 -5 -7 -19 -8 -30 -1 -25 -15 -144 -19 -166 -8 -40
-18 -191 -17 -254 2 -80 17 -165 35 -189 12 -16 14 -16 29 1 36 40 79 136 104
229 33 124 43 144 91 176 49 34 104 51 198 64 22 3 51 8 65 10 14 3 129 7 256
9 179 4 234 2 242 -7 15 -20 25 -278 24 -633 -2 -521 -1 -1231 1 -1520 2 -238
0 -277 -16 -330 -50 -159 -104 -206 -298 -256 -49 -13 -89 -27 -89 -31 0 -7
66 -28 105 -33 11 -2 47 -7 80 -11 73 -11 506 -11 665 -1 306 20 371 25 377
30 8 9 -140 68 -220 88 -142 35 -165 66 -185 249 -8 72 -9 2436 -1 2444 10 10
187 21 329 20 172 -1 284 -21 378 -67 82 -40 153 -108 174 -167 56 -158 92
-249 96 -245 3 3 16 -2 29 -10 13 -9 23 -12 24 -8 2 14 1 64 -6 313 -9 317 -9
318 -16 325 -12 11 -2420 12 -2427 0z"/>
<path d="M14520 13344 c-81 -53 -164 -126 -370 -324 -102 -97 -223 -210 -270
-250 -47 -40 -97 -84 -111 -99 -48 -50 -135 -127 -329 -296 -107 -92 -215
-187 -240 -209 -52 -46 -46 -41 -310 -269 -107 -93 -224 -195 -260 -226 -36
-31 -135 -115 -220 -186 -85 -72 -157 -132 -160 -135 -5 -6 -212 -181 -870
-735 -195 -165 -357 -302 -360 -305 -3 -3 -59 -50 -125 -105 -106 -89 -305
-257 -450 -380 -149 -127 -208 -173 -285 -223 -47 -30 -134 -87 -195 -126
-660 -429 -889 -568 -1026 -623 -45 -18 -140 -36 -194 -36 -48 0 -292 16 -298
20 -6 4 -74 117 -135 223 -11 19 -38 67 -60 107 -68 118 -170 321 -222 438
-47 110 -153 405 -145 405 2 0 0 11 -5 25 -10 27 -55 246 -64 311 -19 147 -25
413 -13 534 3 25 5 57 6 73 1 29 -6 28 88 12 18 -3 43 -9 57 -15 15 -5 26 -8
26 -6 0 2 37 -11 83 -31 45 -19 110 -45 145 -59 l63 -24 -5 37 c-13 104 -45
217 -131 473 -80 238 -99 309 -120 460 -5 37 -15 153 -20 245 -12 227 -17 292
-20 315 -2 14 -6 50 -10 80 -3 30 -9 70 -13 88 l-7 33 -65 -33 c-80 -39 -190
-147 -280 -273 -89 -126 -124 -169 -205 -255 -53 -57 -86 -106 -135 -200 -36
-68 -76 -140 -89 -160 -13 -19 -34 -64 -46 -100 -12 -36 -54 -138 -94 -228
-90 -206 -120 -304 -137 -459 l-6 -52 38 11 c22 5 91 37 155 70 127 66 216 89
206 52 -12 -40 -62 -324 -72 -409 -4 -27 -8 -61 -10 -74 -27 -162 -26 -583 1
-761 48 -322 114 -596 304 -1260 73 -255 132 -477 144 -543 8 -45 26 -145 31
-172 2 -14 7 -56 10 -93 4 -37 8 -80 11 -97 5 -39 4 -407 -1 -460 -2 -22 -7
-78 -10 -125 -4 -47 -9 -101 -11 -120 -2 -19 -6 -60 -9 -90 -3 -30 -8 -64 -10
-76 -3 -18 1 -21 23 -18 99 11 214 23 277 29 95 9 310 18 435 18 128 0 383
-11 418 -18 10 -1 46 -6 82 -9 36 -4 76 -9 90 -11 14 -2 45 -7 70 -10 67 -9
268 -44 320 -56 25 -5 135 -30 245 -55 292 -66 300 -68 545 -128 124 -30 236
-57 250 -60 14 -2 90 -18 170 -34 129 -27 167 -34 245 -47 109 -19 107 -18
210 -30 28 -3 70 -8 95 -11 50 -6 403 -6 435 0 11 2 56 7 100 11 44 3 94 8
110 10 17 3 57 7 90 10 83 7 166 16 193 20 12 2 62 7 110 11 48 3 94 8 103 9
39 8 249 16 249 11 0 -24 -61 -145 -109 -216 -32 -47 -64 -96 -71 -109 l-12
-24 88 7 c49 3 100 8 114 10 14 3 42 7 64 10 340 51 767 231 1191 501 60 39
461 302 502 330 12 8 27 15 32 15 18 0 12 14 -16 41 -48 45 -89 52 -393 74
-104 7 -190 16 -220 21 -14 2 -50 6 -80 9 -30 3 -65 8 -77 10 -12 3 -41 7 -65
10 -35 5 -338 54 -428 70 -100 18 -139 25 -170 30 -19 3 -55 10 -80 15 -25 5
-58 11 -75 14 -16 3 -55 9 -85 15 -30 6 -71 13 -90 17 -19 3 -66 12 -105 18
-38 7 -72 11 -74 9 -3 -2 16 -33 41 -71 120 -177 139 -244 83 -302 -44 -46
-116 -63 -270 -64 -115 -1 -253 8 -295 19 -8 2 -40 7 -70 10 -30 3 -62 8 -70
10 -8 2 -31 7 -50 10 -80 14 -283 59 -390 86 -63 17 -123 32 -132 34 -10 2
-80 22 -155 45 -321 96 -589 196 -752 281 -155 80 -163 91 -167 229 -5 200 72
411 248 682 62 94 216 301 237 318 4 3 26 30 51 60 129 157 421 459 625 645
66 61 149 137 184 170 36 33 70 65 77 70 6 6 60 55 120 111 142 131 154 142
254 233 46 42 96 87 110 101 14 14 72 68 130 120 57 52 116 106 130 120 15 14
71 66 125 115 54 50 110 101 125 115 15 14 71 66 125 115 54 50 110 101 125
115 15 14 69 63 120 110 51 47 107 99 125 115 17 17 81 75 141 130 60 55 138
127 174 160 123 114 155 143 190 175 19 17 87 82 150 144 63 61 174 163 245
225 72 63 175 155 229 205 55 50 109 100 121 111 13 11 76 70 141 131 156 146
160 149 364 302 246 184 350 293 398 414 15 39 15 40 -10 61 -61 53 -163 143
-177 158 -9 8 -92 82 -185 165 -93 82 -187 166 -210 187 -23 20 -43 37 -46 37
-3 0 -30 -16 -60 -36z"/>
<path d="M13865 9774 c-33 -34 -75 -109 -75 -134 0 -5 -4 -18 -9 -28 -5 -9
-17 -39 -27 -67 -9 -27 -29 -66 -43 -85 -37 -49 -74 -109 -93 -150 -48 -105
-59 -132 -87 -205 -16 -44 -50 -136 -74 -205 -68 -189 -103 -275 -161 -390
-28 -58 -61 -132 -72 -165 -27 -85 -68 -122 -187 -168 -53 -22 -97 -40 -97
-42 0 -2 110 0 420 9 74 3 164 5 200 6 l65 1 -70 25 c-117 40 -156 56 -152 61
3 2 2 16 -2 31 -7 26 7 85 74 307 15 50 28 95 28 100 1 24 345 25 456 1 41 -8
79 -20 83 -24 13 -13 84 -182 108 -254 21 -68 25 -84 35 -169 7 -51 9 -55 34
-56 31 -1 162 -12 211 -18 19 -2 64 -7 100 -10 36 -3 77 -7 93 -9 33 -4 33 -1
5 44 -49 80 -248 509 -248 537 0 3 -6 19 -14 36 -8 18 -54 136 -101 262 -161
425 -244 622 -319 748 -15 26 -32 47 -37 47 -5 0 -25 -16 -44 -36z m-9 -685
c41 -112 77 -223 79 -246 6 -65 -9 -72 -140 -68 -210 6 -245 8 -245 15 0 4 45
110 101 236 56 126 105 240 110 253 5 13 12 22 14 19 3 -2 39 -96 81 -209z"/>
<path d="M15227 9772 c40 -15 78 -33 84 -39 8 -8 11 -45 10 -105 -2 -51 -4
-176 -6 -278 -12 -624 -17 -909 -18 -1012 l-2 -117 -67 -37 c-38 -21 -66 -39
-64 -41 8 -8 359 -13 991 -14 l650 -1 -3 153 c-2 85 -5 197 -7 249 -1 52 -3
124 -4 159 l-1 65 -25 -33 c-13 -19 -46 -79 -74 -135 -113 -232 -278 -370
-496 -416 -128 -27 -348 -8 -459 40 -42 18 -45 21 -57 77 -15 72 -15 70 -25
173 -11 107 -11 695 0 935 5 99 9 211 11 248 2 38 5 70 7 73 3 2 42 17 89 34
64 22 77 29 54 30 -76 4 -228 8 -435 14 l-225 6 72 -28z"/>
<path d="M18270 9752 c-35 -22 -52 -41 -77 -92 -18 -36 -32 -71 -32 -78 -2
-41 100 -217 137 -236 l27 -14 2 224 c1 123 -1 224 -5 223 -4 0 -27 -13 -52
-27z"/>
<path d="M17380 9743 c-174 -69 -321 -213 -405 -396 -62 -135 -89 -260 -88
-412 2 -264 83 -464 251 -619 71 -65 203 -135 287 -152 11 -2 31 -6 45 -9 14
-4 47 -8 73 -10 l48 -4 -65 61 c-175 161 -232 293 -251 578 -6 93 -6 386 0
446 11 115 54 248 128 397 54 108 69 147 58 147 -9 0 -45 -12 -81 -27z"/>
<path d="M18233 8447 c-45 -27 -56 -41 -84 -102 l-31 -70 21 -49 c27 -65 94
-176 105 -176 5 0 17 -7 26 -15 15 -14 17 1 18 215 1 126 1 230 0 230 -2 -1
-26 -15 -55 -33z"/>
<path d="M22581 26992 c-251 -251 -352 -322 -531 -372 -113 -31 -290 -34 -405
-5 -97 23 -131 34 -193 62 -19 8 -35 13 -38 11 -2 -3 15 -13 39 -23 23 -10 92
-42 152 -71 61 -28 184 -86 274 -128 91 -43 199 -93 240 -113 42 -19 89 -42
104 -50 25 -13 31 -13 42 -2 20 22 506 862 501 867 -3 2 -86 -77 -185 -176z"/>
<path d="M6045 26808 c-44 -4 -100 -12 -125 -18 -25 -6 -56 -13 -70 -16 -63
-13 -298 -119 -288 -129 2 -2 28 3 58 11 321 85 853 -210 1309 -726 172 -195
297 -387 346 -534 20 -60 23 -87 20 -171 -4 -117 -23 -188 -68 -247 -72 -94
-181 -132 -382 -131 -105 1 -142 5 -192 22 -75 25 -207 88 -250 119 -17 12
-34 22 -37 22 -17 0 -253 180 -321 245 -17 17 -58 55 -91 86 -231 220 -435
466 -524 631 -60 111 -78 159 -93 247 -16 91 -7 165 27 234 14 28 24 52 23 53
-1 1 -25 -26 -52 -61 -87 -110 -148 -239 -173 -365 -4 -19 -6 -93 -6 -165 1
-110 5 -144 28 -219 37 -122 117 -283 183 -366 143 -182 270 -306 404 -393
129 -85 231 -138 372 -195 89 -37 251 -65 372 -65 70 0 225 12 235 18 3 2 30
6 60 10 30 4 58 9 61 11 3 2 21 6 40 9 117 20 200 58 302 139 112 88 192 169
194 197 1 13 13 65 27 114 38 139 55 275 51 410 -2 66 -6 136 -10 155 -50 272
-188 486 -475 731 -112 96 -195 153 -306 208 -218 108 -423 149 -649 129z"/>
<path d="M21375 26700 c3 -5 11 -10 16 -10 6 0 7 5 4 10 -3 6 -11 10 -16 10
-6 0 -7 -4 -4 -10z"/>
<path d="M5456 26574 c-31 -25 -56 -48 -56 -50 0 -3 24 13 53 37 71 58 72 59
65 59 -3 0 -31 -20 -62 -46z"/>
<path d="M4338 25590 c-29 -21 -64 -53 -78 -71 -82 -107 -160 -191 -223 -239
-58 -45 -84 -74 -132 -152 -34 -53 -76 -114 -95 -135 -19 -21 -79 -89 -133
-150 -54 -62 -102 -113 -107 -113 -4 0 -11 -8 -14 -17 -6 -16 -6 -16 11 -1 17
15 22 15 68 -1 54 -20 142 -61 190 -89 17 -10 53 -31 80 -47 91 -53 466 -312
575 -397 22 -17 301 -226 370 -278 14 -10 45 -33 70 -52 175 -131 472 -338
485 -338 3 0 21 -10 40 -22 34 -22 35 -25 30 -68 -14 -110 -48 -182 -130 -270
-34 -37 -85 -110 -85 -122 0 -4 21 16 48 44 26 28 56 61 67 72 93 99 278 297
301 321 15 17 78 84 140 150 62 66 121 129 131 141 10 12 35 27 56 34 73 23
134 94 162 186 31 103 23 100 -118 -43 l-133 -135 -87 -18 -87 -17 -142 96
c-129 87 -175 119 -340 236 -26 18 -111 80 -189 137 -164 119 -240 174 -359
255 -423 289 -589 409 -689 499 -47 42 -48 45 -41 84 5 27 22 56 55 93 26 28
56 62 66 73 10 12 36 25 56 29 21 5 43 10 48 11 40 11 120 20 175 18 166 -4
290 -40 570 -164 183 -81 261 -112 267 -107 8 9 -138 135 -271 235 -122 91
-331 237 -361 252 -5 3 -35 22 -66 42 -30 20 -72 45 -91 57 l-36 20 -54 -39z"/>
<path d="M26648 25599 c-288 -60 -509 -252 -564 -490 -12 -50 -10 -156 3 -219
22 -105 49 -172 158 -400 140 -291 160 -353 160 -505 0 -74 -4 -98 -24 -138
-30 -62 -90 -121 -197 -193 l-86 -59 -106 0 c-319 1 -489 95 -564 313 -33 97
-32 268 1 367 46 135 112 252 264 465 53 74 94 136 92 138 -5 5 -105 -47 -155
-81 -39 -27 -237 -183 -250 -198 -3 -3 -42 -33 -88 -68 -110 -83 -230 -154
-264 -155 -16 -1 -28 -7 -28 -13 0 -7 -1 -15 -2 -18 0 -2 -4 -25 -8 -51 l-7
-46 111 6 c61 4 138 8 171 10 l61 4 -7 -56 c-8 -71 -3 -97 23 -142 11 -19 28
-65 38 -102 46 -175 177 -319 366 -402 132 -58 260 -80 365 -62 19 3 45 8 59
10 122 19 293 89 400 164 263 182 351 428 255 717 -19 57 -47 114 -162 335
-112 215 -146 318 -144 445 5 305 266 437 620 315 36 -13 80 -32 98 -42 47
-28 40 -9 -12 32 -151 119 -366 163 -577 119z"/>
<path d="M27303 25389 c39 -53 104 -188 117 -248 18 -79 6 -179 -35 -296 -20
-55 -47 -140 -61 -190 -24 -87 -28 -92 -92 -153 l-67 -63 75 49 c41 27 110 67
152 90 96 51 210 134 279 203 51 53 105 126 98 133 -6 6 -75 15 -168 21 -47 3
-86 7 -88 9 -2 2 -9 35 -14 72 -23 148 -62 244 -136 332 -54 63 -102 96 -60
41z"/>
<path d="M3520 24663 c-14 -16 -55 -62 -90 -103 -36 -41 -73 -83 -83 -95 -10
-11 -58 -65 -105 -120 -48 -55 -93 -106 -101 -114 -14 -15 -5 -25 96 -111 115
-98 314 -243 528 -385 148 -97 205 -131 205 -118 -1 24 -100 148 -210 263 -68
72 -142 155 -163 183 -128 170 -151 330 -78 545 16 45 28 82 27 82 0 0 -12
-12 -26 -27z"/>
<path d="M28231 24367 c17 -59 62 -137 94 -162 27 -20 36 -38 53 -108 12 -46
24 -90 27 -98 4 -10 -11 -24 -47 -43 -52 -28 -243 -142 -653 -388 -229 -138
-556 -331 -630 -373 -337 -188 -582 -305 -641 -305 -14 0 -144 109 -201 169
-13 13 -23 20 -23 15 1 -8 348 -502 383 -544 20 -24 77 -119 77 -128 0 -13 78
-123 114 -160 33 -36 114 -88 122 -79 3 2 -20 51 -50 108 -53 102 -80 178 -89
250 l-4 36 281 163 c481 280 638 370 645 370 4 0 32 -25 62 -57 161 -168 481
-627 466 -668 -3 -6 -67 -46 -144 -88 -111 -61 -433 -251 -588 -348 -60 -37
-168 -89 -200 -95 -47 -8 -93 15 -168 87 -36 35 -82 80 -101 98 -20 19 -36 30
-36 25 0 -28 181 -283 420 -594 91 -118 189 -246 218 -284 29 -38 52 -65 52
-60 -1 10 -41 90 -88 174 -30 53 -62 153 -62 192 0 18 83 77 273 193 54 33
137 84 185 114 48 29 206 123 352 208 146 84 272 158 280 163 175 107 640 348
765 396 132 52 128 52 153 -10 13 -29 41 -71 63 -93 38 -39 175 -120 185 -110
2 2 -31 66 -73 142 -57 100 -96 156 -143 204 -36 37 -164 191 -285 343 -121
152 -222 274 -224 272 -2 -2 17 -39 43 -82 46 -78 70 -141 81 -215 6 -34 3
-41 -32 -73 -96 -88 -422 -288 -703 -430 l-125 -64 -80 83 c-84 87 -217 257
-326 417 -73 106 -142 221 -136 226 3 3 295 167 452 254 33 18 111 62 174 97
62 34 115 63 116 63 2 0 38 20 79 45 42 25 81 45 86 45 5 0 0 17 -12 38 -11
20 -45 82 -76 137 -30 55 -65 119 -78 143 -34 59 -74 131 -95 169 -10 18 -25
57 -34 87 -19 64 -44 99 -94 130 -63 39 -71 39 -60 3z"/>
<path d="M2694 23724 c-88 -149 -118 -192 -154 -219 -67 -49 -95 -85 -145
-186 -26 -50 -63 -117 -82 -148 -46 -71 -58 -90 -185 -296 -282 -456 -338
-548 -335 -551 2 -2 138 -72 303 -155 164 -83 372 -189 462 -235 89 -45 162
-80 162 -76 0 31 -85 114 -230 225 -204 157 -321 292 -365 422 -35 104 -21
279 31 388 15 31 21 36 43 31 110 -25 498 -208 856 -404 28 -15 82 -44 120
-65 75 -40 77 -41 348 -189 292 -160 373 -202 560 -294 l178 -87 -6 -50 c-11
-103 -47 -194 -119 -308 -33 -52 -56 -101 -38 -82 93 101 378 509 487 697 28
48 59 92 71 98 12 7 34 32 50 57 34 54 134 276 127 283 -5 6 -128 -120 -163
-168 -14 -19 -30 -39 -35 -45 -6 -7 -27 -38 -48 -69 l-37 -57 -48 5 c-77 9
-217 60 -377 139 -160 79 -226 115 -455 248 -19 11 -123 65 -230 120 -194 99
-281 145 -395 207 -75 40 -238 124 -245 125 -15 2 -269 139 -293 158 -25 20
-26 25 -17 56 5 19 35 74 67 122 l58 88 66 21 c236 72 389 66 674 -24 171 -54
276 -82 335 -91 l45 -7 -25 24 c-14 13 -38 34 -55 45 -28 19 -838 433 -847
433 -3 0 -54 -84 -114 -186z"/>
<path d="M29338 21555 c-2 -1 -34 -5 -72 -9 -38 -4 -79 -9 -90 -11 -12 -2 -34
-6 -51 -9 -124 -17 -331 -88 -477 -163 -364 -185 -594 -469 -645 -793 -21
-131 5 -411 45 -482 66 -117 103 -163 152 -188 19 -10 66 -39 104 -64 147 -99
365 -182 531 -203 22 -3 56 -8 75 -12 44 -9 263 -7 350 3 283 33 592 153 815
318 93 69 241 217 294 296 166 246 200 498 99 740 -72 173 -205 322 -374 420
-114 66 -261 119 -379 136 -23 4 -52 9 -65 12 -27 5 -306 14 -312 9z m690
-299 c258 -22 424 -152 426 -330 0 -75 -6 -101 -37 -170 -91 -198 -331 -394
-667 -545 -125 -57 -469 -185 -590 -220 -250 -72 -510 -90 -840 -56 -19 2 -38
4 -42 4 -3 1 -17 20 -31 44 -14 23 -54 74 -89 112 -75 84 -109 129 -112 153
-4 26 21 126 45 179 56 121 172 247 319 344 234 156 857 401 1155 455 82 14
171 26 235 31 41 3 76 6 77 7 3 2 71 -2 151 -8z"/>
<path d="M3892 21219 c-12 -5 -28 -6 -36 -3 -10 4 -20 -14 -36 -63 -12 -37
-23 -72 -24 -78 -1 -5 -8 -27 -15 -47 -11 -34 -17 -38 -69 -50 -67 -15 -547
-18 -737 -4 -66 4 -140 10 -165 11 -25 2 -83 6 -129 10 -47 4 -105 9 -130 11
-25 2 -75 6 -111 9 -36 3 -92 8 -125 10 -79 7 -170 15 -220 20 -22 2 -76 7
-120 10 -44 4 -92 8 -107 10 -14 2 -77 7 -140 10 -62 4 -120 9 -129 10 -72 13
-494 23 -505 12 -3 -3 4 -23 15 -45 22 -43 64 -81 181 -165 236 -168 567 -420
600 -458 3 -3 43 -35 90 -73 47 -37 92 -73 100 -79 47 -38 286 -221 350 -268
186 -137 236 -170 361 -240 69 -39 77 -47 87 -84 6 -23 29 -64 51 -91 23 -26
48 -69 56 -94 16 -50 34 -174 29 -202 -6 -34 12 -18 33 30 194 450 213 488
259 520 24 18 44 38 44 46 0 17 -28 86 -35 86 -3 0 -23 -11 -44 -24 -30 -20
-39 -32 -44 -63 -5 -30 -16 -47 -47 -72 -66 -53 -102 -60 -256 -53 -23 2 -60
24 -135 83 -57 45 -152 115 -211 156 -96 66 -106 76 -99 96 5 12 53 130 106
262 54 132 100 246 103 253 4 11 24 12 96 7 50 -4 102 -8 116 -10 14 -2 75 -7
135 -10 61 -4 118 -9 127 -10 10 -2 64 -7 120 -11 57 -3 114 -8 128 -9 14 -2
38 -3 53 -4 l28 -1 -2 -92 c-1 -69 -8 -111 -26 -163 -13 -38 -28 -83 -33 -100
l-10 -30 20 25 c11 14 20 28 20 32 0 4 11 23 24 42 35 53 178 345 229 471 39
94 65 171 71 210 3 21 18 35 36 35 11 0 28 9 38 21 19 20 68 178 61 197 -3 6
-13 6 -27 1z m-2042 -514 c287 -13 473 -23 541 -29 42 -4 196 -75 204 -94 4
-10 -183 -393 -200 -411 -9 -8 -275 170 -360 241 -11 9 -57 46 -103 81 -111
87 -239 199 -246 215 -3 7 -2 11 2 8 4 -2 77 -7 162 -11z"/>
<path d="M462 19660 c-47 -183 -102 -392 -142 -540 -23 -85 -43 -162 -45 -170
-1 -8 -8 -35 -15 -60 -7 -25 -14 -56 -16 -70 -3 -14 -14 -36 -25 -50 -11 -14
-35 -57 -54 -96 -36 -75 -52 -131 -74 -264 -5 -30 -28 -138 -50 -239 -23 -102
-38 -188 -34 -192 5 -4 24 -10 43 -13 60 -10 94 -17 130 -26 19 -5 53 -12 75
-15 22 -4 47 -8 55 -10 20 -6 449 -96 475 -100 11 -2 43 -9 70 -15 28 -6 59
-13 70 -15 11 -2 42 -8 70 -13 27 -6 51 -9 53 -7 5 4 -140 77 -263 132 -368
164 -507 268 -566 424 -30 78 -33 122 -14 225 l17 95 56 -6 c32 -4 64 -8 72
-10 8 -2 44 -7 80 -10 68 -7 220 -39 500 -105 206 -49 525 -123 690 -161 69
-16 166 -38 215 -50 50 -11 97 -22 105 -24 8 -2 83 -19 165 -39 141 -33 223
-52 270 -62 11 -2 51 -12 90 -22 68 -18 69 -19 78 -58 15 -66 1 -221 -28 -308
-14 -44 -24 -84 -22 -90 9 -28 141 345 211 599 32 116 77 286 81 305 2 8 13
53 24 100 25 103 51 227 51 243 -1 18 -37 -64 -91 -208 -28 -71 -55 -143 -61
-159 l-12 -29 -100 7 c-56 3 -110 8 -121 10 -11 2 -40 7 -65 10 -52 7 -85 13
-155 26 -58 11 -96 18 -145 26 -19 3 -38 8 -41 10 -3 2 -21 6 -40 9 -19 3 -63
13 -99 21 -36 9 -76 18 -90 20 -14 3 -63 14 -110 25 -99 24 -116 28 -150 35
-14 3 -79 19 -145 35 -66 17 -127 32 -136 34 -8 2 -128 31 -265 65 -137 34
-256 63 -264 65 -8 2 -69 17 -135 33 -66 16 -159 38 -207 48 l-88 18 5 41 c14
133 104 264 223 324 140 70 274 88 632 85 140 -1 251 0 245 2 -8 2 -324 85
-385 100 -8 2 -78 20 -155 40 -77 20 -147 37 -155 40 -8 2 -42 11 -75 20 -33
9 -67 18 -75 19 -8 2 -38 10 -65 17 l-51 14 -22 -86z"/>
<path d="M30995 19357 c-21 -15 -214 -82 -330 -116 -38 -11 -102 -29 -140 -40
-63 -18 -275 -76 -315 -86 -8 -2 -124 -31 -257 -64 -343 -86 -750 -180 -889
-205 -16 -3 -84 -16 -150 -29 -67 -13 -130 -20 -140 -16 -23 8 -74 92 -117
190 -38 88 -96 193 -103 186 -3 -2 0 -15 5 -28 5 -13 51 -154 101 -314 139
-438 170 -536 185 -580 7 -22 32 -100 55 -172 23 -73 44 -133 47 -133 6 0 -4
107 -11 118 -2 4 -7 25 -11 47 -16 99 -22 153 -21 205 l1 55 65 32 c93 45 393
132 550 159 14 2 36 6 50 9 14 3 48 7 75 10 28 3 94 13 148 21 55 9 102 12
107 8 4 -5 10 -36 13 -70 8 -78 44 -160 91 -202 26 -23 36 -41 36 -62 0 -36
-2 -26 16 -100 23 -98 62 -166 156 -271 42 -47 146 -116 223 -148 219 -92 450
-86 630 15 140 79 233 203 286 386 31 106 35 351 8 501 -28 157 -72 286 -109
322 -17 16 -76 109 -131 207 -55 98 -101 178 -102 178 -2 0 -11 -6 -22 -13z
m171 -446 c30 -1 31 -4 92 -155 34 -85 62 -167 62 -183 -1 -128 -94 -285 -214
-361 -90 -57 -308 -129 -476 -158 -65 -11 -206 -12 -261 -2 -165 30 -318 176
-333 318 -3 30 -16 105 -30 165 -21 95 -22 112 -10 126 8 8 14 21 14 27 0 14
86 36 260 68 14 3 43 10 65 16 22 5 51 12 65 15 14 2 106 22 205 44 99 22 191
43 205 45 14 3 32 7 40 9 8 3 31 7 50 10 20 3 49 9 65 13 17 5 61 7 100 6 38
-2 84 -3 101 -3z"/>
</g>
</svg>
