<svg xmlns="http://www.w3.org/2000/svg" data-name="Layer 1" viewBox="0 0 100 125" x="0px" y="0px"><title>Hipster</title><path d="M83.36,50.37c.24-2.5-1.77-7.48-1.77-7.48s-.49-7-.84-7.36-1-6.18-1-7A23.11,23.11,0,0,1,81,20.33C82.33,16.89,81,10,81,10a32,32,0,0,1-2.73,14c-1,2.37-2.5,2.73-3.8,4.51s2.73,3.68-2.26,6.06-14.13-5.23-17.33-6.53c-2-.83-3.83.58-4.87,1.73-1-1.15-2.83-2.56-4.87-1.73-3.2,1.3-12.34,8.9-17.33,6.53s-.95-4.28-2.26-6.06-2.85-2.14-3.8-4.51A32,32,0,0,1,19,10s-1.34,6.89,0,10.33a23.11,23.11,0,0,1,1.21,8.19c0,.83-.59,6.65-.95,7s-.84,7.36-.84,7.36-2,5-1.77,7.48,1.66,5.46,1.66,8.07,8.31,11.75,7.24,15.19.48,5.7,2,6.65,5.7,2.5,6.18,4.63,5.93,6.06,8.31,4.87c2.11-1,6.09-.8,8-.56,1.86-.24,5.85-.49,8,.56,2.38,1.19,7.84-2.73,8.31-4.87s4.63-3.68,6.18-4.63,3.09-3.2,2-6.65S81.7,61.05,81.7,58.44,83.12,52.86,83.36,50.37ZM61.52,46.92c-3.09-.24-7.13-1.66-7.6-1.42a28.59,28.59,0,0,1-7.84,0c-.47-.24-4.51,1.18-7.6,1.42s-3.56-2.25-3.56-2.25l3.56-1.9s8.91-3.45,10.33-6.18A3.8,3.8,0,0,1,50,35.12a3.8,3.8,0,0,1,1.19,1.47c1.42,2.73,10.33,6.18,10.33,6.18l3.56,1.9S64.6,47.16,61.52,46.92Z"/></svg>