<svg xmlns="http://www.w3.org/2000/svg" xmlns:xlink="http://www.w3.org/1999/xlink" version="1.1" x="0px" y="0px" viewBox="0 0 100 125" style="enable-background:new 0 0 100 100;" xml:space="preserve"><path d="M94.9,45.5c-0.1-1.3-1.7-12.6-1.8-13.1c-0.1-0.6-0.3-1.1-0.4-1.7c-0.3-1.1-0.8-2.2-1.6-3  c-0.8-0.8-1.8-1.2-2.7-1.4c-0.9-0.1-1.6-0.1-2.2-0.1c-0.6,0.1-1.1,0.1-1.4,0.2c-0.1,0-0.2,0-0.3,0.1c-0.8-1.5-1.2-2.8-2.6-3.9  c-2-1.6-4.8-2.4-7.3-2.8c-9-1.5-22.5,2.5-25.9,12c-2.2-2-5.9-2.8-8.6-3.5c-3.6-0.8-7.4-1.1-11.1-0.8c-4.8,0.4-12.2,1.2-10.2,7.7  c0.1,0.5,0.3,1,0.5,1.4l-0.1,0c0,0-0.3,0.9-0.5,1.7c-0.1,0.4-0.3,0.9-0.3,1.2c0,0.2,0,0.3,0,0.4c-0.7-0.2-1.4-0.3-2.1-0.3  c-0.8-0.1-1.5-0.1-2.3,0c-0.8,0.1-1.6,0.2-2.4,0.7c-0.1,0-0.1,0.1-0.2,0.1c-0.1,0-0.1,0-0.2,0.1l-0.1,0l-0.1,0.1  C11,40.8,11,40.8,11,40.9c-0.1,0.2-0.2,0.4-0.3,0.6c-0.2,0.4-0.3,0.7-0.5,1c-0.3,0.7-0.5,1.4-0.8,2.1c-0.5,1.4-0.9,2.7-1.3,4.1  C7.3,51.5,6.6,54,5.9,57h0c-0.3,1-0.6,2-0.8,3c-0.2,1-0.3,2.2,0.2,3.3c0.4,1,1.3,1.8,2.2,2.3c0.9,0.5,1.8,0.8,2.7,1.1  c0.6,0.2,1.2,0.4,1.9,0.5c0,0.1,0,0.2,0,0.4c0,0.2,0.1,0.5,0.1,0.9c0,0.2,0.1,0.4,0.1,0.6c0,0.2,0.1,0.4,0.1,0.6  c0.1,0.4,0.3,0.9,0.5,1.4c0.2,0.5,0.5,1.1,0.8,1.6c0.7,1.1,1.6,2.3,2.8,3.3c1.2,1,2.7,1.8,4.4,2.4c0.4,0.2,0.8,0.3,1.3,0.4  c0.4,0.1,0.8,0.3,1.3,0.4c0.4,0.1,0.9,0.2,1.3,0.3c0.4,0.1,0.9,0.2,1.3,0.3c1.8,0.4,3.8,0.7,5.8,0.8c2,0,4.1-0.2,6-1  c1.9-0.7,3.7-2,5-3.6c0.3-0.4,0.6-0.8,0.9-1.2c0.2-0.5,0.5-0.9,0.7-1.4l0.3-0.7l0.2-0.7l0.1-0.3l0.1-0.4l0.2-0.7  c1-3.5,2-6.8,2.8-9.6c0.8-2.8,1.5-5.2,1.9-6.8c0.2-0.7,0.3-1.2,0.5-1.6c0.4-0.3,1-0.6,1.4-0.7c0.2,0,0.3,0.4,0.5,0.4  c0.8-0.1,1.4-0.5,1.8-1.1c0,0.1-0.1,0.2-0.1,0.5c-0.1,0.7,0.3,1.3,0.7,1.4c0.5,0.1,0.3-1.7-0.2-2.4c0.1-0.2,0.2-0.4,0.3-0.6  c0.3,2,0.8,5.1,1.4,8.8c0.1,0.9,0.3,1.7,0.4,2.7c0.1,0.9,0.3,1.8,0.6,2.9c0.4,1,0.9,2,1.6,2.8c0.3,0.4,0.8,0.8,1.2,1.2l0.7,0.5  c0.2,0.2,0.5,0.3,0.7,0.5c1.9,1.2,4.1,2,6.5,2.3c0.6,0.1,1.2,0.2,1.7,0.2l0.9,0c0.3,0,0.6,0,0.9,0c0.3,0,0.6,0,0.9,0l0.9-0.1  c0.6-0.1,1.2-0.2,1.7-0.3l1.7-0.4c0.6-0.2,1.2-0.3,1.7-0.6c1.1-0.5,2.1-1.1,3.1-1.9c1.8-1.5,3.3-3.4,4.1-5.5  c0.4-1.1,0.4-2.1,0.4-3.3c0.1-0.6,0.6-1-0.4-1.6c0,0,0,0,0,0c1-0.2,1-0.4,1.6-0.7c0.5-0.3,1.3-0.6,2-0.9c0.4-0.2,0.8-0.4,1.2-0.5  c0.2-0.1,0.4-0.2,0.7-0.3c0.1,0,0.2-0.1,0.3-0.1c0.1-0.1,0.3-0.1,0.4-0.2c1-0.6,1.6-1.6,2-2.7c0.4-1.1,0.7-2.3,0.8-3.5  C95,48,95,46.8,94.9,45.5z M72.8,20.5c2.6,0.2,5.7,0.9,7.9,2.4c1.9,1.3,2.1,3.4,3.4,5.1c1.7,2.3,2.3,3.6,2,6.4  c-0.1,1.2-0.3,2.3-0.7,3.5c-0.1,0.5-0.3,1-0.4,1.5c-0.5,0.3-0.9,0.5-1.3,0.6l-0.3,0c0,0,0,0,0,0c-0.9,0.2-1.1-0.5-0.7-1.9  c0-0.3-0.2-0.5-0.5-0.5c-0.3,0-0.7,0-1.2-0.1l0-0.2c-1.5-0.7-3.2-0.9-4.7,0.8c-1.3,1.5-2.3,1.2-2.9,2.3c-0.3,0.1-0.5,0.2-0.8,0.4  C71.1,42,73.8,43.9,71,45c-0.2,0.1-0.4,0.3-0.3,0.6c0.3,0.7,0.2,1.9-0.6,2.3c-0.3,0-0.5,0-0.7,0c-0.3-0.2-1-0.5-1-0.5  c-0.3-0.1-0.6,0.2-0.6,0.5c-0.2,1.8-0.3,3.6-0.2,5.4c0,1,0.1,2,0.2,3c0.1,1.1,0.7,1.8-0.6,2c-2.2,0.4-3.8-7.7-4.2-9.6  c-0.1-0.4-0.6-0.5-0.8-0.2c-1.1,1.1-0.3,0.7-1.2,0.3c-0.8-0.3-1.2-1.6-1.6-2.3c-0.5-1-0.7-2.8-1.6-3.6c-0.8-0.7-0.9-0.5-1.8-0.7  c-1.3-0.2-1.2-2.9-1.8-4.3c-1-2.1-2.6-4.2-4.6-5.5C52.4,23.6,64.6,19.7,72.8,20.5z M87.1,33.9c0.1,0.1,0.1,0.2,0.2,0.2l0,0.1l0,0  l0,0l0,0c0,0,0,0,0,0c0.1,0.3,0.2,0.8,0.3,1.3c0.2,1,0.4,2.3,0.6,3.6c0.2,1.3,0.4,2.7,0.6,4.1c0.2,1.4,0.4,2.8,0.5,4.1  c0,0.2,0,0.3,0,0.5c0,0.1,0,0.3,0,0.4c0,0.3-0.1,0.6-0.2,0.8c-0.2,0.5-0.5,0.9-0.8,1.2c-0.7,0.6-1.6,1-2.1,1.1c-0.1,0-0.1,0-0.2,0.1  c0-0.1,0-0.2,0-0.3c-0.2-1.7-0.4-3.3-0.5-4.7c-0.2-1.4-0.3-2.6-0.4-3.6c-0.1-0.6-0.1-1-0.2-1.5c0.7-1,1.2-2.5,1.4-3.4  C86.6,36.8,86.9,35.3,87.1,33.9z M78.4,45.6c-1,0.1-1.9-0.7-2-1.8c-0.1-1.1,0.7-2,1.7-2.1c1-0.1,1.9,0.7,2,1.8  C80.1,44.5,79.4,45.5,78.4,45.6z M79.7,49.4c0,0.6-0.4,1-0.9,1.1s-1-0.4-1.1-0.9c0-0.6,0.4-1,0.9-1.1C79.2,48.5,79.6,48.9,79.7,49.4  z M61.5,51.9c0.6,0,1,0.4,1.1,0.9c0,0.6-0.4,1-0.9,1.1c-0.6,0-1-0.4-1.1-0.9C60.6,52.4,61,51.9,61.5,51.9z M63,54.6  c0.4,0,0.8,0.3,0.8,0.7c0,0.4-0.3,0.8-0.7,0.8c-0.4,0-0.8-0.3-0.8-0.7C62.3,55,62.6,54.6,63,54.6z M75.6,45.6  c0.6-0.1,1.1,0.3,1.2,0.8c0,0.5-0.4,1-1,1c-0.6,0.1-1.1-0.3-1.2-0.8C74.6,46.1,75,45.7,75.6,45.6z M22.1,40.2  c-0.1,0.3-0.3,0.7-0.4,1.3c-0.3-0.3-0.6-0.5-1-0.7c-0.3-0.2-0.7-0.3-1-0.4c0-0.1,0.1-0.2,0.1-0.4c0.1-0.3,0.2-0.8,0.3-1.2  c0-0.2,0.1-0.3,0.1-0.5C20.8,39,21.4,39.7,22.1,40.2z M27.9,56.5c0.1-0.6,0.5-1,1-1c0.5,0.1,0.8,0.6,0.8,1.2c-0.1,0.6-0.5,1-1,1  C28.2,57.7,27.8,57.1,27.9,56.5z M27.4,53.3c-0.6-0.4-0.8-1.2-0.5-1.8c0.4-0.6,1.2-0.8,1.8-0.5c0.6,0.4,0.8,1.2,0.5,1.8  C28.8,53.4,28,53.6,27.4,53.3z M27.5,48.7c-0.8-0.5-1.1-1.5-0.6-2.4c0.5-0.8,1.5-1.1,2.4-0.6c0.8,0.5,1.1,1.5,0.6,2.4  C29.4,48.9,28.3,49.1,27.5,48.7z M24.6,51.5c-0.5-0.3-0.6-0.9-0.4-1.4s0.9-0.6,1.4-0.4c0.5,0.3,0.6,0.9,0.4,1.4  C25.7,51.7,25.1,51.8,24.6,51.5z M25.6,53.9c-0.2,0.4-0.7,0.5-1,0.3c-0.4-0.2-0.5-0.7-0.3-1c0.2-0.4,0.7-0.5,1-0.3  C25.7,53.1,25.8,53.6,25.6,53.9z M16.7,60.9c-0.1-0.1-0.2-0.2-0.4-0.3c-0.5-0.3-1-0.4-1.5-0.5l-0.2,0c0.3-1.1,0.9-3.6,1.6-6.1  c0.4-1.7,0.9-3.3,1.2-4.6c0.2-0.6,0.3-1.1,0.4-1.5c0-0.1,0-0.2,0.1-0.3c0.6,0.1,1.1,0.2,1.7,0.3l0,0l0.3,0c0,0,0,0,0.1,0  C18.8,52.2,17.6,57.3,16.7,60.9z M15.2,47.5l0.1-0.1c0,0,0.1-0.1,0.2-0.1c0.2-0.1,0.6,0,1,0c0,0.1,0,0.1-0.1,0.2  c-0.1,0.4-0.2,0.9-0.4,1.5c-0.3,1.2-0.7,2.9-1.1,4.6c-0.6,2.5-1.3,5.1-1.5,6.1c-0.5-0.1-0.9-0.1-1.2-0.3c-0.3-0.2-0.4-0.3-0.4-0.6  l0.7-2.7l0.7-2.7c0.2-0.9,0.5-1.8,0.8-2.7c0.3-0.9,0.6-1.8,0.9-2.6C15,47.8,15.1,47.6,15.2,47.5C15.2,47.4,15.2,47.4,15.2,47.5z   M34.9,54.2c0.3-0.4,0.9-0.6,1.4-0.3s0.7,0.9,0.5,1.3c-0.3,0.4-0.9,0.6-1.4,0.3C34.9,55.2,34.7,54.6,34.9,54.2z M35.7,58.4  c0.3-0.5,0.9-0.6,1.4-0.4c0.5,0.3,0.6,0.9,0.4,1.4c-0.3,0.5-0.9,0.6-1.4,0.4C35.6,59.5,35.5,58.9,35.7,58.4z M37.9,52.8  c0.5-0.9,1.7-1.3,2.6-0.8c0.9,0.5,1.2,1.7,0.7,2.6c-0.5,0.9-1.7,1.3-2.6,0.8C37.7,54.9,37.4,53.7,37.9,52.8z M9.3,65.1  c-0.5-0.2-0.8-0.3-1.2-0.5c-0.8-0.4-1.3-1-1.7-1.7c-0.3-0.7-0.4-2-0.3-2.8C6.2,59.2,6.4,58,6.6,57h0c0.8-3,1.7-5.3,2.6-8.1  c0.5-1.4,0.9-2.7,1.5-4.1c0.3-0.7,0.5-1.2,0.8-1.9c0.1-0.3,0.3-0.6,0.5-0.9c0.1-0.1,0.3-0.5,0.4-0.6c0.5-0.3,1.1-0.4,1.8-0.6  c0.7-0.1,1.4-0.2,2.1-0.2c0.7,0,1.4,0,2.1,0.1c0.7,0.1,1.4,0.2,2,0.5c0.6,0.3,1.1,0.8,1.4,1.4c0.3,0.6,0.3,1.3,0.2,2  c-0.1,0.7-0.3,1.4-0.7,1.9c-0.4,0.5-1,0.8-1.7,0.6c-0.9-0.2-1.8-0.4-2.8-0.6c-0.5-0.1-1-0.3-1.6-0.1c-0.2,0-0.3,0.1-0.5,0.2  l-0.2,0.1c-0.1,0.1-0.2,0.2-0.3,0.2c-0.2,0.3-0.3,0.5-0.4,0.7c-0.4,0.9-0.6,1.8-0.9,2.7c-0.3,0.9-0.5,1.8-0.8,2.7L11,58.6  c-0.1,0.3-0.1,0.7,0.1,1c0.2,0.3,0.5,0.5,0.7,0.6c0.5,0.2,1,0.3,1.5,0.4c0.9,0.2,1.9,0.3,2.6,0.7c0.7,0.4,0.8,1.2,0.6,2.1  c-0.2,0.8-0.5,1.7-1.1,2.3c-0.1,0.2-0.3,0.3-0.4,0.4c0,0-0.1,0.1-0.1,0.1l-0.1,0c0,0,0,0,0,0c-0.1,0-0.2,0.1-0.2,0.1  c-0.4,0.1-0.8,0-1.2,0c-0.9-0.1-1.8-0.4-2.6-0.7C10.2,65.4,9.8,65.3,9.3,65.1z M46.9,60.6c-0.9,2.8-1.9,6.1-2.9,9.6  c-0.5,1.8-1.1,3.4-2.3,4.7c-1.2,1.3-2.6,2.5-4.3,3.2c-1.7,0.7-3.5,1.1-5.4,1.1c-1.9,0.1-3.7-0.2-5.4-0.6c-0.4-0.1-0.9-0.2-1.3-0.4  c-0.4-0.1-0.8-0.3-1.2-0.4c-0.4-0.1-0.8-0.3-1.2-0.5c-0.4-0.2-0.8-0.3-1.1-0.5c-1.4-0.7-2.7-1.5-3.8-2.4c-1.1-0.9-1.9-1.8-2.5-2.7  c-0.6-0.9-1-1.8-1.3-2.5c-0.1-0.2-0.1-0.4-0.2-0.5c-0.1-0.2-0.1-0.3-0.1-0.5c-0.1-0.3-0.2-0.6-0.2-0.8c0.4,0,0.7,0,1.1-0.1  c0.1,0,0.3-0.1,0.4-0.1c0,0,0,0,0.1-0.1l0.1,0c0.1,0,0.1-0.1,0.2-0.1c0.1-0.1,0.2-0.1,0.2-0.2c0,0.9,0.5,1.9,1.4,3.2  c2.2,3.1,4.2,5.8,11.8,7s11.6-2.3,12.8-6.3l0.5-1.1c1.4,0.1,1.7-2.2,2.1-3.4c0.6-2.3,1.3-4.6,1.9-6.9c0.5-1.9,0.8-4.9,2.1-6.7  c0.1,0.5,0.4,0.9,1,1c0,0.1-0.1,0.3-0.1,0.4C48.5,55.5,47.8,57.8,46.9,60.6z M54.9,52.1c-0.2,0.2-0.2-0.5-0.2-0.8  c0-0.1,0-0.2-0.1-0.2c0.1-0.1,0.2-0.3,0.3-0.5C54.9,50.7,55.1,51.9,54.9,52.1z M52.3,50.8c-0.4,0.1-1.1,0.1-1.5,0.1  c0,0-0.2,0.2-0.5,0.5l-0.4-0.1c0,0-0.1,0.2-0.2,0.5C49.4,52,49,51.9,49,51.3c0-0.4-0.5-0.6-0.8-0.3c-1.6,1.4-1.8,3.7-2.4,5.6  c-0.8,3.1-1.7,6.2-2.5,9.3c-0.1,0.5-0.2,1.8-0.8,1.7c-0.7,0,0-2.7,0.1-3.4c0.2-1.2,0.4-2.4,0.5-3.6c0.3-2.7,0.4-5.5-0.3-8.1  c-0.5-1.9-1.4-2.9-2.3-4.3c-0.7-1.1-0.3-3.6-1.6-4.2C37,43,35.2,46.1,34,48.5c0-1-0.1-2-0.5-2.9c-0.1-0.2-0.6-0.2-0.7-0.3  c-0.2-0.8-0.4-1.5-0.6-2.3c0.1-0.2,0.2-0.4,0.3-0.7c0-0.1,0.1-0.2,0.1-0.2c-0.3-1.3-0.6-1.4-2.1-1.8C29,39.8,27.5,39,26,38.8  c-0.3,0-0.6,0.4-0.9,0.4c-2.4,0.2-3.8-0.7-4.8-2.7c-0.4-0.9-0.9-1.9-0.9-2.9c0-1.6,2.2-3.6,3.7-4.2c1.6-0.6,3.7-0.8,5.3-0.9  c3.3-0.3,6.6-0.2,9.8,0.4c3.1,0.6,7.6,1.4,9.9,3.6c0.1,0.1,0.2,0.1,0.4,0.1c0,0.1,0.1,0.2,0.2,0.2c1.3,0.7,4.3,3.5,4.8,5.9  c0.1,0.7,0.5,3.6,1.7,4.4c0,1.3,0,2.9-0.3,4.3l-0.2,0c0,0,0,0.1,0.1,0.4C54.5,49.3,53.8,50.5,52.3,50.8z M85.5,59.9  c0,0.9-0.3,1.9-0.7,2.9c-0.8,1.9-2.1,3.7-3.7,5.1c-0.8,0.7-1.8,1.3-2.8,1.7c-0.5,0.2-1,0.4-1.5,0.5c-0.6,0.1-1.1,0.3-1.7,0.4  c-0.6,0.1-1.1,0.2-1.7,0.3l-0.8,0.1c-0.3,0-0.6,0-0.8,0c-0.3,0-0.6,0-0.8,0l-0.8,0c-0.6,0-1.1-0.1-1.6-0.2c-2.2-0.3-4.3-1.1-6-2.2  c-0.2-0.1-0.4-0.3-0.6-0.4l-0.6-0.5c-0.3-0.4-0.7-0.7-1-1.1c-0.7-0.7-1.1-1.6-1.4-2.4c-0.1-0.4-0.2-0.8-0.3-1.3  c-0.1-0.5-0.1-0.9-0.2-1.4c-0.1-0.9-0.3-1.8-0.4-2.7c-1.1-6.8-1.9-11.4-1.9-11.4l-0.1,0c0.2-1.3,0.2-2.6,0.2-3.7  c0.5,0.2,0.8,0.2,1.2,0.8c0.4,4.1,3.2,18.6,3.2,18.6c0.2,1.2,1.2,2.5,2.9,3.6c2.8,1.9,6.7,2.6,9.7,2.1c8.2-1.3,10.8-6.1,10.4-9.9  l-2.4-20.1c0.2,0.1,0.3,0.2,0.4,0.3c0.4,0.5,0.3,1.8,0.8,2.4c0.4,0.6,0.8,0.8,1.2,0.9c0,0.3,0.1,0.5,0.1,0.8c0.1,1,0.3,2.2,0.4,3.6  c0.2,1.4,0.4,3,0.6,4.7s0.4,3.6,0.7,5.5c0.1,0.5,0.1,1,0.2,1.5C85.5,58.8,85.5,59.4,85.5,59.9z M93.4,52.5c-0.3,1-0.9,1.9-1.6,2.3  c-0.1,0.1-0.2,0.1-0.3,0.1c-0.1,0.1-0.2,0.1-0.3,0.2c-0.2,0.1-0.4,0.2-0.6,0.3c-0.4,0.2-0.8,0.3-1.1,0.5c-0.7,0.3-1.4,0.6-1.9,0.8  c-0.4,0.2-0.8,0.3-1,0.4c0-0.1,0-0.2,0-0.3c-0.2-1.4-0.3-2.8-0.4-4.1c0.1-0.1,0.3-0.2,0.4-0.2c0.3-0.1,0.6-0.3,1-0.5  c0.4-0.2,0.9-0.5,1.3-0.8c0.4-0.4,0.9-0.9,1.1-1.6c0.1-0.3,0.2-0.7,0.2-1c0-0.2,0-0.3,0-0.5c0-0.2,0-0.3,0-0.5  c-0.1-1.4-0.2-2.8-0.3-4.2c-0.3-2.9-0.7-5.7-1.1-7.8c-0.1-0.5-0.2-1-0.4-1.5c0-0.1-0.1-0.2-0.1-0.3l0-0.1l0,0c0,0,0,0,0,0l0-0.1  c-0.1-0.1-0.1-0.1-0.1-0.2c-0.1-0.1-0.1-0.3-0.2-0.4c-0.1-0.3-0.3-0.6-0.7-0.9c0,0-0.1,0-0.1-0.1c0-0.2,0-0.4,0-0.6  c-0.2-1.8-1-2.5-1.9-3.6c0.3,0,0.6-0.1,1-0.1c0.5-0.1,1.2-0.1,1.9,0.1c0.7,0.1,1.4,0.4,2,1c0.6,0.6,1,1.4,1.3,2.4  c0.1,0.5,0.2,1.1,0.4,1.6c0.1,0.6,0.2,1.1,0.3,1.7c0.2,1.2,1.4,10,1.6,11.2c0.2,1.2,0.3,2.5,0.4,3.6C93.9,50.4,93.8,51.5,93.4,52.5z  "/><path d="M69.2,46.1c1.1,0.4,1.5-2.7,0.8-3.5c-0.5-0.6,0.3,1.7-0.4,2.2c-0.3,0.2-0.6-1.4-0.4-1.5  C68.4,44.5,68.4,45.8,69.2,46.1z"/><path d="M62.4,46c0.9,0.2,0.6-3.4-0.4-4.9c0-0.1,0.3,2.6-0.1,3c-0.4,0.3-0.3-1.1-0.4-1.6c-0.1-0.6-0.2-0.6-0.5,0.8  C60.7,44.6,61.5,45.7,62.4,46z"/><path d="M47,48.7c-0.3-0.7-0.2-2-0.2-2.6c-1.3,1.9-0.6,3.2,1.3,3.8c0.8,0.5,0.6-3.1-0.6-4.6  C47.7,45.9,48.4,50.5,47,48.7z"/><path d="M47.4,45.4C47.4,45.3,47.4,45.3,47.4,45.4C47.4,45.3,47.4,45.3,47.4,45.4z"/><path d="M53.2,46.2c0,0.8-0.9,1.2-1.7,0.4c-0.3-0.4-0.2-1-0.3-1.6c-0.1-0.6-0.2-0.6-0.5,0.8  c-0.3,1.4,1.2,1.9,2.1,2.1c0.9,0.2,1.4-2.4,0.3-3.9C52.4,44,53.2,45.3,53.2,46.2z"/><path d="M53.8,57.1c0,0.8-0.3,0.6-1-0.3c-0.3-0.4-0.2-1-0.3-1.6c-0.1-0.6-0.2-0.6-0.5,0.8c-0.3,1.4,0.5,2.5,1.5,2.8  c0.9,0.2,1.4-2.4,0.3-3.9C53.1,54.9,53.9,56.2,53.8,57.1z"/><path d="M66,51.1c0.5,0.1,0.3-1.7-0.2-2.4c0,0,0.2,1.3,0,1.5c-0.2,0.2-0.2-0.5-0.2-0.8c0-0.3-0.1-0.3-0.3,0.4  C65.2,50.5,65.6,51,66,51.1z"/><path d="M43.4,48.3c-0.2,0.2-0.2-0.5-0.2-0.8c0-0.3-0.1-0.3-0.3,0.4c-0.1,0.7,0.3,1.3,0.7,1.4  c0.5,0.1,0.3-1.7-0.2-2.4C43.4,46.7,43.6,48.1,43.4,48.3z"/><path d="M50.4,48.9c-0.2,0.2-0.2-0.5-0.2-0.8c0-0.3-0.1-0.3-0.3,0.4c-0.1,0.7,0.3,1.3,0.7,1.4  c0.5,0.1,0.3-1.7-0.2-2.4C50.5,47.4,50.6,48.7,50.4,48.9z"/><ellipse cx="34.7" cy="43.3" rx="0.4" ry="0.3"/><path d="M84.4,34.3c0.1-0.8-0.3-2.4-0.9-2.5c-0.6-0.1,0.7,2.1,0.2,2.3c-0.4,0.2-1.3-2.1-1.5-1c0.2,1.1,0.4,1.4,0.4,2  C83.3,35.7,84.3,35.1,84.4,34.3z"/><path d="M79.9,35.2c0.6,0.2,1.1-0.3,1-0.8s-0.7-1.3-1.1-1.3c-0.4,0,0.9,1,0.6,1.3c-0.2,0.2-1.3-0.9-1.2-0.3  C79.6,34.7,79.8,34.9,79.9,35.2z"/></svg>