<svg xmlns="http://www.w3.org/2000/svg" data-name="Layer 1" viewBox="0 0 100 125" x="0px" y="0px"><title>Hipster</title><path d="M12.3,73.8l5.36,14.58-.49-8.31s2-3.84.89-13.18,3.08-17.41,5.25-20.61S34.83,44.1,34.83,44.1s19.84,1.67,22.92.39,13,.38,15.66,2,5.07,16.38,6.1,22c.88,4.86,1.38,16.77,1.5,19.94.08-1.13.6-3.55,3.11-7.78,3.71-6.27,3-7.15,3.07-7.68.86-7.22,1.34-12,1.43-13,.2-.71,2.34-8.37.87-15.81C88,36.42,75.67,25.54,75.67,25.54,73.62,19,65,17.86,65,17.86l-7.29-5.49c-12.79-5-23,2.8-23,2.8-1.8-1-6.66,0-6.66,0-9.35,2-11.27,12.32-11,17.95S27.28,42.7,27.28,42.7c-5,.76-10-3.08-10-3.08-2.69,1.92-3.93,4.92-6.15,8.71C10.13,50.08,10,57.8,10,60.49s.77,6.14,1.28,10.37S12.3,73.8,12.3,73.8ZM85.91,39.5c-3.82-6.17-6.53-7-15.62-10.79S54,34.17,54,34.17c5.64-9.16,9.73-7.86,18.8-6.36S85.91,39.5,85.91,39.5Zm-17.54-16c-10.88-4-19.71,5.22-19.71,5.22a8.85,8.85,0,0,1,6.65-7.09C61.33,20,68.37,23.49,68.37,23.49Zm-22.53-7C55.44,12.23,61.33,18,61.33,18s-2-.51-11,.9S34.83,32.07,34.83,32.07,36.24,20.68,45.84,16.45ZM25.23,32.2c-4.09-9.09,7.55-14.85,7.55-14.85C21,30.92,30.74,40,30.74,40S29.33,41.29,25.23,32.2Z"/><path d="M81,89.29s0-.29,0-.8A3.12,3.12,0,0,0,81,89.29Z"/></svg>