<svg xmlns="http://www.w3.org/2000/svg" xmlns:xlink="http://www.w3.org/1999/xlink" version="1.1" x="0px" y="0px" viewBox="0 0 181.534 297.67375000000004" style="enable-background:new 0 0 181.534 238.139;" xml:space="preserve"><g><path d="M5.905,151.532l-3.74,16.616c-0.971,4.309,1.737,8.59,6.046,9.56c0.592,0.134,1.184,0.198,1.767,0.198   c3.658,0,6.958-2.526,7.795-6.243l3.584-15.918c-2.514-0.355-4.898-0.764-7.061-1.219C11.085,153.851,8.266,152.826,5.905,151.532z   "/><path d="M102.936,115.261l-8.906-2.394c-1.641-0.439-3.327,0.533-3.768,2.173l-11.908,44.343H31.97   c-1.697,0-3.074,1.376-3.074,3.074v9.223c0,1.697,1.377,3.074,3.074,3.074h21.121l-3.292,48.193   c-14.596,1.433-25.167,5.631-25.167,10.588c0,6.138,72.389,6.138,72.389,0c0-4.958-10.571-9.155-25.167-10.588l-3.292-48.193   h18.746c0.078,0,0.152-0.018,0.229-0.023c1.453,0.121,2.829-0.803,3.22-2.261l14.353-53.443   C105.549,117.388,104.576,115.7,102.936,115.261z"/><ellipse transform="matrix(0.9895 -0.1443 0.1443 0.9895 -1.7627 20.699)" cx="141.767" cy="22.497" rx="22.495" ry="22.494"/><path d="M153.022,47.415c-0.58,0.094-1.141,0.236-1.685,0.417c-0.364,0.049-0.729,0.113-1.093,0.215l-0.001-0.002   c-0.301,0.085-6.345,1.65-15.311,1.646c-11.473-0.011-27.494-2.5-43.209-13.494c-3.621-2.533-8.61-1.65-11.142,1.971   c-2.11,3.014-1.843,6.975,0.395,9.679l5.067,1.28l-1.734-7.743c-0.248-1.104-0.232-2.231,0.044-3.175   c0.39-1.334,1.278-2.248,2.435-2.506c0.209-0.046,0.424-0.07,0.639-0.07c1.821,0,3.475,1.706,4.024,4.148l2.157,9.623   c0.195,0.873,1.238,1.941,2.104,2.16l1.485,0.375c0.199,0.049,0.447,0.075,0.723,0.075c1.008,0,2.183-0.353,2.792-0.841   c0.245-0.194,1.169-0.83,2.833-0.83c0.606,0,1.254,0.086,1.922,0.256c1.808,0.453,3.33,1.586,4.285,3.188   c0.915,1.532,1.198,3.317,0.822,5.053c0.337,0.248,0.665,0.509,0.973,0.8c1.716,1.611,3.39,3.019,5.027,4.232   c6.725,1.35,12.946,1.817,18.287,1.817c0.024,0,0.047,0,0.071,0c2.234-0.001,4.316-0.082,6.23-0.21   c-0.002,0.191-0.001,0.383,0.001,0.575c0.29-0.201,0.579-0.423,0.868-0.641c0.238-0.181,0.477-0.349,0.715-0.54   c3.418-2.758,5.496-5.868,5.514-5.898c1.844-2.922,5.008-4.67,8.469-4.67c1.246,0,2.465,0.255,3.617,0.704   c0.588,0.231,1.165,0.495,1.707,0.836c4.663,2.94,6.067,9.126,3.132,13.792l-0.008,0.012l-0.048,0.072   c-1.007,1.549-3.872,5.605-8.702,9.781c-3.152,2.719-7.523,5.739-12.953,7.753c1.034,10.935,1.512,22.983-0.669,33.746   c-2.825,9.231-7.722,28.979-7.736,55.244c0,14.513,1.511,31.013,5.743,48.744c1.369,5.737,6.495,9.598,12.149,9.599   c0.96,0,1.936-0.111,2.911-0.345c6.715-1.602,10.861-8.345,9.257-15.06c-3.73-15.629-5.06-30.154-5.06-42.939   c-0.002-15.916,2.066-29.12,4.105-38.231c0.021-0.096,0.042-0.184,0.064-0.278c5.935-1.352,11.394-5.315,14.207-15.256   c4.441-21.921,4.084-35.128-1.006-55.802C173.649,51.668,161.706,46.01,153.022,47.415z"/><path d="M73.749,52.815c-1.014-0.949-1.43-2.151-1.139-3.3c0.388-1.549,1.967-2.548,4.02-2.548c0.257,0,0.516,0.02,0.776,0.05   c-3.232-5.104-9.01-8.402-15.48-8.144c-9.655,0.384-17.173,8.525-16.788,18.183c0.387,9.657,8.528,17.174,18.185,16.787   c9.655-0.386,17.173-8.524,16.788-18.184c-0.007-0.166-0.033-0.326-0.045-0.491l-3.504-0.885   C75.466,54.009,74.467,53.487,73.749,52.815z"/><path d="M94.957,69.256c-0.186,0.096-0.381,0.178-0.595,0.226c-1.342,0.301-2.674-0.543-2.975-1.885   c-0.302-1.343,0.543-2.675,1.885-2.976c0.573-0.129,1.14-0.038,1.629,0.201c0.019-0.091,0.038-0.181,0.06-0.27   c0.18-0.749,0.438-1.474,0.787-2.159c-0.95-0.873-1.738-2.065-1.979-3.139c-0.353-1.571,0.637-2.534,2.197-2.14   c0.079,0.02,0.159,0.055,0.239,0.08c0.362,0.116,0.729,0.284,1.092,0.502c0.521,0.312,1.024,0.709,1.464,1.157   c0.151-0.111,0.306-0.216,0.462-0.317c0.569-0.369,1.172-0.68,1.802-0.927c0.086-0.034,0.172-0.065,0.259-0.097   c-0.015-0.248-0.004-0.501,0.06-0.755c0.336-1.334,1.689-2.142,3.023-1.808c1.016,0.258,1.723,1.104,1.856,2.083   c0.088,0.014,0.178,0.021,0.266,0.038c0.768,0.141,1.51,0.377,2.22,0.69c0.193-2.38-1.34-4.623-3.733-5.226   c-2.102-0.529-3.017,0.201-3.017,0.201c-1.29,1.029-3.653,1.542-5.253,1.139l-1.484-0.374c-1.6-0.403-3.204-2.051-3.566-3.661   l-2.157-9.621c-0.361-1.61-1.387-2.765-2.277-2.564c-0.891,0.199-1.324,1.68-0.963,3.289l1.791,7.987   c0.361,1.61-0.652,2.597-2.253,2.194l-0.88-0.222l-6.285-1.586l-0.771-0.194c-1.601-0.403-3.092-0.009-3.315,0.877   c-0.223,0.885,0.903,1.939,2.504,2.344l2.734,0.69l6.828,1.721c1.601,0.404,3.204,2.051,3.565,3.661l0.335,1.493   c0.361,1.609-0.214,3.959-1.276,5.221c0,0-0.754,0.896-0.28,3.011c0.602,2.684,3.267,4.372,5.949,3.77   c0.331-0.074,0.645-0.181,0.943-0.313c-0.351-0.66-0.625-1.357-0.819-2.082C95.006,69.429,94.978,69.343,94.957,69.256z"/><path d="M163.491,68.572c2.355-3.739,1.233-8.678-2.504-11.033c-0.238-0.15-0.481-0.285-0.729-0.407   c-3.631-1.792-8.101-0.587-10.305,2.914v-0.002l-0.004,0.004c-0.216,0.34-1.826,2.643-4.39,5.027   c-0.487,0.453-1.004,0.908-1.558,1.354c-0.848,0.686-1.752,1.338-2.705,1.936c-2.984,1.873-6.464,3.191-10.372,3.182   c-4.673-0.029-10.778-1.748-18.773-8.674c-0.649-0.563-1.307-1.147-1.981-1.78c-0.114-0.107-0.235-0.202-0.354-0.302   c-0.522-0.44-1.083-0.81-1.674-1.095c-0.704-0.339-1.446-0.569-2.202-0.689c-0.097-0.016-0.195-0.022-0.292-0.034   c-1.158-0.142-2.339-0.039-3.456,0.324c-0.093,0.03-0.183,0.069-0.274,0.104c-0.098,0.035-0.197,0.071-0.294,0.111   c-0.598,0.246-1.17,0.568-1.705,0.965c-0.372,0.275-0.729,0.581-1.059,0.929c-0.615,0.65-1.094,1.379-1.449,2.149   c-1.004,2.178-0.972,4.7,0.075,6.85c0.295,0.607,0.663,1.186,1.119,1.716c0.177,0.205,0.367,0.404,0.568,0.595   c10.881,10.367,21.816,14.833,31.638,14.833c0.038,0,0.075,0,0.112,0c4.589-0.009,8.714-0.933,12.351-2.34   c4.85-1.878,8.826-4.617,11.841-7.218C160.444,73.385,163.211,68.999,163.491,68.572z"/><path d="M65.153,77.977c-0.956-0.095-1.961-0.129-3.009-0.106c-1.315,0.027-2.695,0.139-4.161,0.361   c-7.918,1.206-12.141,7.248-15.533,21.663c-3.392,14.416-19.234,20.313-33.65,28.794c-11.459,6.739-11.139,15.707-2.436,20.807   c2.245,1.315,5.04,2.378,8.344,3.073c2.11,0.444,4.507,0.855,7.09,1.219c17.144,2.41,42.715,2.642,50.276-4.51   C80.199,141.592,95.702,80.983,65.153,77.977z"/></g></svg>