<svg xmlns:dc="http://purl.org/dc/elements/1.1/" xmlns:cc="http://creativecommons.org/ns#" xmlns:rdf="http://www.w3.org/1999/02/22-rdf-syntax-ns#" xmlns:svg="http://www.w3.org/2000/svg" xmlns="http://www.w3.org/2000/svg" xmlns:sodipodi="http://sodipodi.sourceforge.net/DTD/sodipodi-0.dtd" xmlns:inkscape="http://www.inkscape.org/namespaces/inkscape" version="1.1" x="0px" y="0px" viewBox="0 0 100 100"><g transform="translate(0,-952.36218)"><g transform="translate(7.994095,960.35628)"><path style="text-indent:0;text-transform:none;direction:ltr;block-progression:tb;baseline-shift:baseline;color:#000000;enable-background:accumulate;" d="m 81.005905,-0.9941 c -8.67553,1.3846 -17.35394,2.7515 -26.03125,4.125 -8.6498,-1.3626 -17.32342,-2.5792 -25.96875,-3.9684 -9.05971,1.3684 -18.24191,2.9679 -26,4.1247 0,27.045 0,54.1855 0,77.4375 9.06009,1.4171 18.20008,2.8826 25.96875,4.1248 8.66439,-1.3352 17.33307,-2.6481 26,-3.9686 8.67429,1.3923 17.35909,2.7195 26.03125,4.125 0,-30.0661 0,-60.1165 0,-86 z m -53.03125,2.3438 0,81.3125 -22.96875,-3.6563 0,-74 z m 2,0 24,3.6562 0,74 -24,3.6563 z m 49.03125,0 0,81.3125 -23.03125,-3.6563 0,-74 z m -11.53125,26.5 c -5.06248,0 -9,4.741 -9,9.75 0,1.1956 0.4467,2.9464 1.34375,4.875 0.84537,1.8175 2.16706,3.7089 4.03125,5.125 l 2.6875,7.5625 c 0.25507,0.8026 1.65118,0.8026 1.90625,0 l 2.6875,-7.5625 c 1.86419,-1.4161 3.18588,-3.3075 4.03125,-5.125 0.89705,-1.9286 1.3125,-3.6794 1.3125,-4.875 0,-5.009 -3.93753,-9.75 -9,-9.75 z m 0,2 c 3.77191,0 7,3.8084 7,7.75 0,0.647 -0.3352,2.3333 -1.125,4.0312 -0.7898,1.6982 -1.99583,3.4346 -3.65625,4.5938 -0.17373,0.1213 -0.3072,0.2993 -0.375,0.5 l -1.8125,5.125 -1.84375,-5.125 c -0.0678,-0.2007 -0.20127,-0.3787 -0.375,-0.5 -1.66042,-1.1592 -2.86645,-2.8956 -3.65625,-4.5938 -0.7898,-1.698 -1.15625,-3.3842 -1.15625,-4.0312 0,-3.9416 3.22808,-7.75 7,-7.75 z" fill="#000000" fill-opacity="1" stroke="none" marker="none" visibility="visible" display="inline" overflow="visible"/></g></g></svg>