<svg xmlns="http://www.w3.org/2000/svg" xmlns:xlink="http://www.w3.org/1999/xlink" version="1.1" x="0px" y="0px" viewBox="0 0 100 125" style="enable-background:new 0 0 100 100;" xml:space="preserve"><style type="text/css">
	.st0{fill:none;stroke:#000000;stroke-width:2;stroke-linecap:round;stroke-linejoin:round;stroke-miterlimit:10;}
	.st1{fill:none;stroke:#000000;stroke-width:2;stroke-miterlimit:10;}
	.st2{fill:none;stroke:#000000;stroke-width:2;stroke-linecap:round;stroke-miterlimit:10;}
</style><path d="M66.2,75.6v7.7c0,0.6,0.4,1,1,1h10.9c0.6,0,1-0.4,1-1v-7.7c0-0.6-0.4-1-1-1H67.2C66.7,74.6,66.2,75,66.2,75.6z M68.2,76.6  h8.9v5.7h-8.9V76.6z"/><path d="M51.6,75.6v7.7c0,0.6,0.4,1,1,1h10.9c0.6,0,1-0.4,1-1v-7.7c0-0.6-0.4-1-1-1H52.6C52,74.6,51.6,75,51.6,75.6z M53.6,76.6h8.9  v5.7h-8.9V76.6z"/><path d="M37,75.6v7.7c0,0.6,0.4,1,1,1h10.9c0.6,0,1-0.4,1-1v-7.7c0-0.6-0.4-1-1-1H38C37.5,74.6,37,75,37,75.6z M39,76.6h8.9v5.7H39  V76.6z"/><path d="M85.6,37.6l-1.9-18.5c0,0,0,0,0-0.1v-5.3c0-0.6-0.4-1-1-1H13.2c-0.6,0-1,0.4-1,1V19c0,0,0,0.1,0,0.1l-1.9,18.4  c0,0.3,0.1,0.6,0.3,0.8c0.2,0.2,0.5,0.3,0.7,0.3h0.9v49.2c0,0.6,0.4,1,1,1h69.5c0.6,0,1-0.4,1-1V38.7h0.9c0.3,0,0.6-0.1,0.7-0.3  S85.6,37.8,85.6,37.6z M83.5,36.7h-0.8H33.4H13.2h-0.8L14.1,20h67.7L83.5,36.7z M81.7,38.7v31.3H34.4V38.7H81.7z M81.7,86.9H34.4  V71.9h47.3V86.9z M14.2,38.7h18.2v48.2H14.2V38.7z M81.7,18H14.2v-3.3h67.6V18z"/><circle cx="28.4" cy="64.6" r="1.1"/><path d="M74.2,66c-0.2,0.2-0.5,0.3-0.7,0.3S73,66.2,72.8,66c-0.4-0.4-0.4-1,0-1.4l3.7-3.7c0.4-0.4,1-0.4,1.4,0s0.4,1,0,1.4L74.2,66z  "/><path d="M69.6,65.3c-0.2,0.2-0.5,0.3-0.7,0.3s-0.5-0.1-0.7-0.3c-0.4-0.4-0.4-1,0-1.4l7.5-7.5c0.4-0.4,1-0.4,1.4,0s0.4,1,0,1.4  L69.6,65.3z"/></svg>