<svg xmlns="http://www.w3.org/2000/svg" xmlns:xlink="http://www.w3.org/1999/xlink" version="1.1" x="0px" y="0px" viewBox="0 0 100 125" enable-background="new 0 0 100 100" xml:space="preserve"><rect x="5" y="5" fill="none" width="90" height="90"/><path d="M93.9,43.86l-23.521-7.9c1.021-4.77,0.96-7.83,0.87-9.03c0.01-0.17,0.01-0.34,0.01-0.49c0-11.71-9.52-21.23-21.23-21.23  c-11.67,0-21.17,9.47-21.22,21.13c-0.12,0.89-0.66,6.29,2.58,16L6.93,34.13c-0.4-0.13-0.84-0.07-1.18,0.18  c-0.34,0.24-0.54,0.64-0.54,1.06v48.39c0,0.561,0.36,1.061,0.89,1.24l28.99,9.72c0.28,0.101,0.57,0.09,0.84,0l28.57-9.59l28.57,9.59  c0.14,0.05,0.279,0.07,0.42,0.07c0.27,0,0.529-0.08,0.76-0.25c0.34-0.24,0.54-0.63,0.54-1.05v-48.4  C94.79,44.53,94.43,44.03,93.9,43.86z M68.96,38.24l4.6,20l-8.279-0.53v-9.72c1.6-3.77,2.689-7.05,3.43-9.84L68.96,38.24z   M50.03,14.76c6.44,0,11.68,5.24,11.68,11.68s-5.24,11.68-11.68,11.68s-11.68-5.24-11.68-11.68S43.59,14.76,50.03,14.76z   M36.29,51.44c2.29,4.84,5.43,10.46,9.72,16.81l-9.72,5.64V51.44z M7.82,37.18l6.95,2.33l-4.51,12.9L7.82,50.3V37.18z M7.82,52.36  l2.28,1.97l9.89,8.52L7.82,80.5V52.36z M34.72,91.85L8.05,82.9l13.14-19.03L34.72,75.52V91.85z M34.72,73.46L21.54,62.12l-10-8.62  l4.71-13.49l8.63,2.89l6.78,2.28l1.44,0.48l0.77,0.26c0.27,0.67,0.55,1.35,0.85,2.06V73.46z M63.71,82.65L36.29,91.85V75.69  L46.9,69.55c0.78,1.141,1.6,2.3,2.47,3.49c0.15,0.2,0.38,0.32,0.63,0.32s0.49-0.12,0.63-0.32c2.38-3.271,4.46-6.37,6.3-9.31  l6.78-3.921V82.65z M63.71,58l-5.07,2.94c2.021-3.41,3.69-6.57,5.07-9.48V58z M92.19,91.68L65.28,82.65V59.28l26.91,1.71V91.68z   M92.19,59.42l-17-1.08L70.7,38.82l21.49,7.21V59.42z"/></svg>