<svg xmlns="http://www.w3.org/2000/svg" data-name="Layer 1" viewBox="0 0 100 125" x="0px" y="0px"><title>picto_vecto</title><circle cx="39.88" cy="49.35" r="1.1" transform="translate(-22.82 59.06) rotate(-59.86)"/><path d="M87.13,43.76A1,1,0,0,0,87,43.44s0,0,0-.07a1,1,0,0,0-.29-0.28,173,173,0,0,1-21.62-16.4l2.37,0.08h0A1,1,0,0,0,68,26.64l9.37-5.21a1,1,0,0,0,.39-1.36l-2.13-3.84a1,1,0,0,0-1.36-.39l-9.37,5.21a1,1,0,0,0-.38.38l-1.79,3.12c-3.46-3.13-6-5.62-6.9-6.71a1,1,0,1,0-1.52,1.3,156,156,0,0,0,15.37,14L56.81,25.76a3.55,3.55,0,1,0-6,3.32l-4,6.65-0.15-.07a2.55,2.55,0,0,0-3.3,1.26A2.49,2.49,0,0,0,44.28,40l-3.49,5.84L37,43.64a1,1,0,0,0-1.37.36l-2.48,4.27a1,1,0,0,0,.37,1.37l1.82,1-0.72,1.23-1.69-1a2.83,2.83,0,0,0-3.86,1l-0.27.46h0a2.81,2.81,0,0,0-.3,2,2.81,2.81,0,0,0-1.61,1.27l-0.27.46a2.81,2.81,0,0,0-.31,2,2.81,2.81,0,0,0-1.61,1.27l-0.27.46a2.81,2.81,0,0,0-.31,2,2.8,2.8,0,0,0-1.61,1.27l-0.27.46a2.8,2.8,0,0,0-.31,2A2.8,2.8,0,0,0,20.37,67l-0.27.46h0a2.81,2.81,0,0,0-.31,2,2.8,2.8,0,0,0-1.61,1.27l-0.27.46h0a2.83,2.83,0,0,0,1,3.86l1.4,0.81-1,1.65a1,1,0,0,0,.36,1.37,1.53,1.53,0,0,1-.37,2.8,1.53,1.53,0,0,1-1.16-.16,1,1,0,0,0-1.49.72l-0.95,6.52a1,1,0,0,0,1.6.93l5.2-4.05a1,1,0,0,0,.25-0.29l3.5-6,1.4,0.81a2.83,2.83,0,0,0,3.86-1l0.27-.46a2.8,2.8,0,0,0,.31-2,2.8,2.8,0,0,0,1.61-1.27L34,74.91a2.8,2.8,0,0,0,.31-2A2.8,2.8,0,0,0,36,71.62l0.27-.46a2.81,2.81,0,0,0,.31-2,2.8,2.8,0,0,0,1.61-1.27l0.27-.46a2.81,2.81,0,0,0,.3-2,2.8,2.8,0,0,0,1.61-1.27l0.27-.46a2.8,2.8,0,0,0,.31-2,2.81,2.81,0,0,0,1.61-1.26l0.27-.46a2.83,2.83,0,0,0-1-3.86L40,55l0.75-1.3,1.75,1a1,1,0,0,0,.82.07,2.57,2.57,0,0,1,2.14.2l20,11.77a4.88,4.88,0,0,0,5.87,5.15h0.1a4.93,4.93,0,0,0,3.23-2.34h0a4.9,4.9,0,0,0,.59-3.22,40.39,40.39,0,0,1,3.53-10.86l0.78,0.35a2.47,2.47,0,0,0,1,.22,2.5,2.5,0,0,0,1-4.78l-0.19-.09a62.5,62.5,0,0,1,5.43-6.56l0,0a1,1,0,0,0,.1-0.12,0.94,0.94,0,0,0,.05-0.14,0.8,0.8,0,0,0,.08-0.43,1,1,0,0,0,0-.11v0ZM66.06,22.67l8.26-4.59,1.16,2.09-8.26,4.59-2.32-.08ZM76.39,48.93l-0.78-.35c0.44-.14.85-0.25,1.22-0.34C76.68,48.46,76.54,48.7,76.39,48.93ZM52,25.88A1.54,1.54,0,0,1,53,25.16a1.57,1.57,0,0,1,.4-0.05A1.55,1.55,0,1,1,52,25.88Zm0.48,4.22a3.5,3.5,0,0,0,.85.11l0.43,0a3.93,3.93,0,0,0-.83,1L49.58,37l-0.9-.4ZM46.1,40.88L47,41.29,46.59,42a4,4,0,0,0-.52,2,1,1,0,0,0-1.16.41l-1.69,2.79-0.7-.41ZM48,47.51h0l4.37,2.54,0.31,0.15h0l6.39,3.73a1,1,0,0,0,.21.09,4,4,0,0,0,.57.41L64.26,57a4,4,0,0,0,5.46-1.45l1.9-3.25,2.26,1c-1,2-1.71,3.81-2.09,4.82a8.4,8.4,0,0,0-6.7,2.1L44.93,48.31l1.17-1.93L48,47.51h0ZM58.44,49a4,4,0,0,0-.52,2l-1.5-.87a4,4,0,0,0,1.45-1.44l1.15-2,0.62,0.28ZM21.2,84.19l-3.08,2.4,0.42-2.89a3.57,3.57,0,0,0,1.35-.09,3.53,3.53,0,0,0,1.66-5.83l0.53-.91,2.52,1.46Zm8.93-6.53-0.27.46a0.83,0.83,0,0,1-1.13.3l-6.52-3.78h0L20,73.32a0.83,0.83,0,0,1-.3-1.13l0.27-.46a0.82,0.82,0,0,1,1.13-.3l8.79,5.1A0.82,0.82,0,0,1,30.14,77.66Zm2.18-3.76-0.27.46a0.82,0.82,0,0,1-1.13.3l-8.79-5.1a0.83,0.83,0,0,1-.3-1.13L22.1,68a0.82,0.82,0,0,1,1.13-.3L32,72.78A0.82,0.82,0,0,1,32.32,73.91Zm2.18-3.76-0.27.46a0.82,0.82,0,0,1-1.13.3l-8.79-5.1a0.82,0.82,0,0,1-.3-1.13l0.27-.46a0.82,0.82,0,0,1,.5-0.38l0.21,0a0.81,0.81,0,0,1,.41.11L34.2,69A0.83,0.83,0,0,1,34.5,70.15Zm2.18-3.75-0.27.46a0.82,0.82,0,0,1-1.13.3l-8.79-5.1a0.83,0.83,0,0,1-.3-1.13l0.27-.46a0.83,0.83,0,0,1,.72-0.41,0.81,0.81,0,0,1,.41.11l8.79,5.1A0.83,0.83,0,0,1,36.68,66.4Zm2.18-3.75-0.27.46a0.82,0.82,0,0,1-1.13.3l-8.79-5.1a0.83,0.83,0,0,1-.3-1.13h0l0.27-.46a0.83,0.83,0,0,1,.72-0.41,0.81,0.81,0,0,1,.41.11l8.79,5.1A0.82,0.82,0,0,1,38.86,62.64Zm1.88-4.88a0.82,0.82,0,0,1,.3,1.13l-0.27.46a0.83,0.83,0,0,1-1.13.3l-8.79-5.1a0.82,0.82,0,0,1-.3-1.13L30.83,53a0.82,0.82,0,0,1,1.13-.3Zm-4.37-4.85,0.73-1.25,2,1.1L38.31,54ZM68.94,69.63a2.93,2.93,0,0,1-.07-5L70,70A2.94,2.94,0,0,1,68.94,69.63Zm4-1.07a2.92,2.92,0,0,1-1,1l-1.14-5.39a2.92,2.92,0,0,1,1.07.35A3,3,0,0,1,73,68.56Zm0.89-5a4.94,4.94,0,0,0-1-.74,4.89,4.89,0,0,0-3.41-.56H69.4l-0.05,0-0.19,0a4.91,4.91,0,0,0-3,2.3c0,0.06-.05.13-0.09,0.19L46.51,53.28a4.56,4.56,0,0,0-3.35-.5l-5.91-3.34h0l-1.81-1,1.47-2.53L64.75,62.31a1,1,0,0,0,1.25-.2c0.73-.82,3.27-2.76,6.15-1.88a1,1,0,0,0,1.24-.64,50.71,50.71,0,0,1,2.34-5.49L77,54.67A37.54,37.54,0,0,0,73.86,63.55Zm7.22-9.79a0.51,0.51,0,0,1-.66.25l-35-15.61a0.5,0.5,0,0,1-.25-0.66,0.5,0.5,0,0,1,.46-0.3,0.49,0.49,0,0,1,.2,0l35,15.61A0.5,0.5,0,0,1,81.08,53.76Zm-1.48-3.4-1.36-.61a22.32,22.32,0,0,1,1.7-2.23,1,1,0,0,0,.15-1.08,1,1,0,0,0-.93-0.58,17.18,17.18,0,0,0-4.24.83l1.21-2.06a4,4,0,0,0-1.45-5.47L70.3,36.63a4,4,0,0,0-5.47,1.45l-2.65,4.51-0.62-.28,2.69-4.59a4,4,0,0,0-1.45-5.47l-4.37-2.54a4,4,0,0,0-2.66-.47,3.54,3.54,0,0,0,.67-0.81A3.5,3.5,0,0,0,56.66,28l27.91,16.2A59.88,59.88,0,0,0,79.6,50.36Z"/></svg>