<svg xmlns="http://www.w3.org/2000/svg" xmlns:xlink="http://www.w3.org/1999/xlink" version="1.1" x="0px" y="0px" viewBox="0 0 135.002 296.61375" style="enable-background:new 0 0 135.002 237.291;" xml:space="preserve"><g><path d="M103.99,109.043c0.484-0.569,0.986-1.184,1.492-1.867c2.461-3.314,4.836-7.841,4.824-12.632   c-0.004-2.405-0.57-4.896-2.041-7.474c-0.119-0.206-0.219-0.413-0.328-0.619c-2.631,2.433-4.914,3.965-5.838,4.556   C102.976,95.991,103.652,101.943,103.99,109.043z"/><path d="M110.924,66.34c-1.383,2.736-2.574,6.21-2.572,10.01c0.002,1.519,0.193,3.093,0.633,4.709   c1.857-2.14,3.662-4.697,5.055-7.635C113.08,70.793,112.037,68.445,110.924,66.34z"/><path d="M97.266,100.77V74.764c0.592,1.216,1.189,2.61,1.779,4.237c0.877,2.431,1.711,5.347,2.443,8.812   c0.217-0.151,0.451-0.316,0.709-0.506c1.18-0.864,2.762-2.142,4.436-3.771c-0.896-2.471-1.281-4.896-1.281-7.186   c0.027-5.31,1.941-9.859,3.813-13.058c-0.125-0.196-0.248-0.394-0.373-0.585c-3.283-4.985-7.127-8.183-10.678-9.955   c-1.789-0.902-3.465-1.437-4.916-1.747C92.092,58.487,89.115,84.213,97.266,100.77z"/><path d="M70.219,71.966c9.111,0,15.356-15.829,17.232-21.268H52.988C54.865,56.137,61.107,71.966,70.219,71.966z"/><path d="M28.943,80.434c2.908,1.972,6.021,5.472,6.01,10.782c0,1.505-0.248,3.132-0.787,4.883c-0.721,2.346-1.025,4.65-1.025,6.861   c-0.004,4.65,1.365,8.901,3.061,12.074c0.014,0.029,0.031,0.054,0.045,0.082c0.383-21.409,3.682-33.751,6.928-40.396v26.048   c8.15-16.558,5.172-42.283,4.068-49.763c-1.453,0.31-3.131,0.847-4.92,1.75c-5.379,2.665-11.178,8.5-15.236,18.838   c-0.807,2.04-1.559,4.266-2.25,6.686C25.932,78.704,27.422,79.391,28.943,80.434z"/><path d="M110.871,85.581c1.727,3.02,2.438,6.075,2.436,8.962c-0.084,8.757-6.18,15.795-9.166,18.754   c0.055,2.034,0.088,4.138,0.086,6.343c0,5.513-0.178,11.571-0.566,18.223c-0.256,4.411,3.111,8.194,7.521,8.452   c0.158,0.009,0.316,0.014,0.473,0.014c4.205,0,7.732-3.283,7.979-7.533c0.406-6.934,0.594-13.301,0.594-19.155   c-0.025-18.755-1.896-32.303-4.887-42.286c-1.563,2.667-3.379,4.963-5.172,6.877C110.383,84.68,110.613,85.129,110.871,85.581z"/><path d="M31.301,95.217c0.461-1.498,0.652-2.826,0.652-4.001c-0.012-3.572-1.727-5.921-3.805-7.635   c-1.4-1.141-2.945-1.908-4.09-2.378c-0.967,3.889-1.785,8.248-2.412,13.171c0.299,1.072,0.785,2.47,1.557,3.893   c1.373,2.505,3.494,4.973,6.988,6.119c-0.025-0.472-0.051-0.944-0.051-1.426C30.141,100.472,30.486,97.863,31.301,95.217z"/><path d="M73.891,44.697c10.68-1.753,18.828-11.02,18.828-22.197c0-12.426-10.072-22.5-22.5-22.5c-12.426,0-22.5,10.074-22.5,22.5   c0,11.177,8.15,20.444,18.83,22.197c1.195,0.196,2.42,0.303,3.67,0.303C71.471,45,72.695,44.893,73.891,44.697z"/><path d="M4.615,143.989l2.492,0.947L5,150.486l4.246,1.613l-5.549,14.606l2.57,0.977l5.549-14.607l4.01,1.524l2.609-6.867   l2.699-7.107c0.996,3.325,4.072,5.703,7.649,5.703c0.156,0,0.316-0.004,0.475-0.014c3.074-0.18,5.637-2.077,6.822-4.701   l1.524,0.141l0.121-1.299c1.563,0.291,3.398,0.668,5.449,1.151v83.212c0,6.83,5.537,12.363,12.363,12.363   c6.828,0,12.365-5.533,12.365-12.363v-74.369c1.072,0.54,2.141,1.099,3.207,1.692c0.477,0.267,0.953,0.538,1.428,0.816v71.86   c0,6.83,5.537,12.363,12.363,12.363c6.828,0,12.365-5.533,12.365-12.363v-46.681c2.352,4.78,4.053,10.141,4.867,16.16   c0.309,2.297,0.689,4.482,1.133,6.563c3.152,14.771,9.59,24.204,17.564,29.95c4.408,3.18,9.238,5.217,14.172,6.479   c-0.479-0.767-0.768-1.665-0.768-2.634v-0.683c-4.098-1.199-8.047-2.991-11.65-5.595c-8.33-6.028-15.023-16.425-17.477-34.484   c-0.408-3.023-1.035-5.886-1.842-8.605c-1.451-4.897-3.506-9.313-6-13.292v-45.179v-4.939H70.219H43.174v4.939v11.707   c-1.941-0.445-3.684-0.796-5.172-1.069l0.271-2.921l-1.678-0.155c-0.244-4.985-0.367-9.626-0.379-13.933   c-0.908-1.092-1.799-2.427-2.664-4.001c-1.312-2.461-2.428-5.475-3-8.83c-4.75-1.098-7.777-4.18-9.561-7.169   c-0.502,5.704-0.779,12.068-0.783,19.19c0,4.148,0.1,8.568,0.301,13.252l-3.564-0.331l-2.488-0.945l-2-0.76l-4.461,11.744   l-2.494-0.947l1.109-2.921l-3.506-1.332L0,145.578l3.506,1.332L4.615,143.989z M72.537,134.548v14.953   c-1.541-0.857-3.09-1.657-4.635-2.405v-12.548H72.537z"/></g></svg>