<svg xmlns="http://www.w3.org/2000/svg" xmlns:xlink="http://www.w3.org/1999/xlink" version="1.1" x="0px" y="0px" viewBox="0 0 100 125" enable-background="new 0 0 100 100" xml:space="preserve"><g><path d="M53.235,67.212c-4.541-1.565-8.201-4.817-10.302-9.153c-2.612-5.349-7.138-9.371-12.77-11.321   c-2.67-0.923-4.072,3.137-1.398,4.054c1.753,0.606,3.369,1.471,4.824,2.547c0.536,0.396,0.638,1.161,0.136,1.663L11.583,77.14   C7.369,81.346,5.033,86.923,5,92.843C4.989,94.025,5.944,95,7.157,95c5.92-0.04,11.497-2.375,15.701-6.577l20.82-20.815   c0.333-0.333,0.965-0.481,1.45-0.088c1.98,1.605,4.231,2.886,6.715,3.737C54.568,72.192,55.971,68.147,53.235,67.212z    M14.609,80.17l22.228-22.223l0,0c0.304-0.303,0.791-0.303,1.092,0c0.304,0.304,0.304,0.791,0,1.095l0,0L15.7,81.271   C11.711,85.261,10.614,84.164,14.609,80.17z M18.692,84.338l21.205-21.202c0.303-0.302,0.793-0.302,1.094,0   c0.304,0.303,0.304,0.791,0,1.094v0.003L19.831,85.395C15.838,89.388,14.739,88.289,18.692,84.338z"/><path d="M81.294,50.04c-2.585-3.731-5.337-7.236-8.281-10.62c-0.443-0.511-0.393-1.216,0.201-1.641   c5.482-3.909,10.197-8.789,14.115-15.126l0.736-1.184c0.187-0.281,0.37-0.454,0.729-0.54c6.043-1.423,8.36-9.025,3.829-13.569   c-4.466-4.438-12.131-2.313-13.568,3.842c-0.073,0.312-0.22,0.498-0.471,0.672l-1.235,0.772   c-6.396,3.965-11.262,8.695-15.136,14.106c-0.406,0.569-1.141,0.664-1.607,0.257c-3.371-2.932-6.891-5.692-10.655-8.308   c-0.751-0.517-2.309-0.664-3.083,0.697h-0.006L43.4,25.486c-0.548,0.961-0.266,2.183,0.636,2.821c2.886,1.998,5.648,4.139,8.3,6.37   c0.493,0.417,0.566,1.128,0.077,1.618l-6.28,6.278C45.765,42.941,45.12,43,44.674,42.64c-1.975-1.597-4.237-2.853-6.711-3.71   c-2.75-0.95-4.152,3.11-1.4,4.045c4.541,1.576,8.203,4.83,10.302,9.157c2.48,5.101,6.879,9.285,12.764,11.319   c2.695,0.934,4.091-3.107,1.401-4.047c-1.758-0.609-3.377-1.476-4.829-2.553c-0.604-0.446-0.589-1.197-0.135-1.651l7.628-7.636   c0.404-0.406,1.137-0.481,1.604,0.071c2.254,2.668,4.4,5.437,6.389,8.312c0.636,0.899,1.858,1.188,2.823,0.643l6.081-3.468   C81.955,52.35,81.811,50.791,81.294,50.04z M89.591,10.388c1.481,1.486,1.481,3.9,0.007,5.38c-1.486,1.482-3.896,1.482-5.378,0   c-1.479-1.481-1.479-3.896,0.002-5.376C85.699,8.919,88.111,8.917,89.591,10.388z M73.461,20.797   c0.316-0.266,0.812-0.245,1.104,0.048l4.583,4.583c0.291,0.291,0.313,0.787,0.049,1.105l-0.078,0.088   c-0.264,0.318-0.72,0.337-1.011,0.046l-4.783-4.784c-0.291-0.291-0.271-0.747,0.044-1.013L73.461,20.797z M69.229,24.903   c0.291-0.293,0.769-0.293,1.059,0l4.801,4.798c0.291,0.293,0.291,0.768,0,1.061l-0.079,0.08c-0.293,0.291-0.769,0.291-1.062,0   l-4.798-4.801c-0.293-0.291-0.293-0.768,0-1.059L69.229,24.903z M70.203,34.646l-0.059,0.04c-0.483,0.334-1.219,0.272-1.637-0.146   l-3.058-3.06c-0.418-0.417-0.481-1.151-0.146-1.637l0.042-0.059c0.337-0.483,0.95-0.542,1.368-0.124l3.612,3.616   C70.745,33.696,70.687,34.309,70.203,34.646z M49.885,47.068c-0.304,0.304-0.793,0.304-1.095,0.002   c-0.303-0.304-0.301-0.791-0.002-1.093l7.136-7.127c0.301-0.295,0.776-0.295,1.075-0.006c0.007,0.006,0.011,0.011,0.015,0.017   c0.293,0.297,0.293,0.768,0.007,1.069l-7.136,7.14V47.068z M52.944,52.256c-0.303,0.304-0.791,0.304-1.094,0.002   c-0.304-0.304-0.304-0.791,0-1.095v-0.002l8.184-8.188l0.007,0.004c0.301-0.299,0.782-0.299,1.086-0.006   c0.004,0.006,0.011,0.013,0.015,0.017c0.282,0.293,0.286,0.741,0.021,1.042l-8.216,8.23L52.944,52.256z M73.511,51.115   c-6.914-9.457-15.161-17.7-24.641-24.626c-0.519-0.378-0.529-1.017-0.318-1.394l0.272-0.479c0.341-0.569,1.08-0.688,1.584-0.318   c9.587,7.083,18.252,15.739,25.309,25.313c0.348,0.471,0.18,1.254-0.312,1.534l-0.474,0.27   C74.536,51.643,73.888,51.632,73.511,51.115z M82.682,19.958c0.728,0.483,0.542,1.302,0.196,1.647c-0.412,0.413-1.08,0.413-1.492,0   L78.379,18.6c-0.41-0.412-0.41-1.08,0-1.492c0.347-0.345,1.165-0.531,1.648,0.197C80.706,18.437,81.605,19.313,82.682,19.958   h-0.005H82.682z"/></g></svg>