<svg xmlns="http://www.w3.org/2000/svg" xmlns:xlink="http://www.w3.org/1999/xlink" version="1.1" x="0px" y="0px" viewBox="0 0 50 62.5" style="enable-background:new 0 0 50 50;" xml:space="preserve"><style type="text/css">
	.st0{fill:none;stroke:#000000;stroke-width:2;stroke-miterlimit:10;}
</style><g><path d="M17.8,4.1h-3.2c0,3.1-0.8,11.4-10.5,16v4.4C19.7,19.3,20.9,11.1,21,9.3C19.1,7.7,18,5.7,17.8,4.1z"/><path d="M27.9,1c-0.8,0-1.6,0.4-2,1.1L25,3.7l-0.9-1.5c-0.4-0.7-1.2-1.1-2-1.1c-1.2,0-2.3,1.2-2.3,2.5c0,1.4,1.7,4.5,5.2,5.8   c3.5-1.3,5.2-4.4,5.2-5.8C30.2,2.2,29.1,1,27.9,1z"/><path d="M12.6,4.1H4.1v13.7C12.1,13.5,12.6,6.6,12.6,4.1z"/><path d="M8.3,25.2c-1.3,0.5-2.7,1.1-4.2,1.6v20.1H1V49h18.8v-2.1h-4.2C14.5,32.3,9.7,26.6,8.3,25.2z"/><path d="M45.9,24.6v-4.4c-9.6-4.7-10.5-13-10.5-16h-3.2C32,5.7,30.9,7.7,29,9.3C29.1,11.1,30.3,19.3,45.9,24.6z"/><path d="M45.9,17.8V4.1h-8.4C37.4,6.6,37.9,13.5,45.9,17.8z"/><path d="M45.9,46.9V26.8c-1.5-0.5-2.9-1-4.2-1.6c-1.4,1.4-6.2,7.2-7.3,21.7h-4.2V49H49v-2.1H45.9z"/></g></svg>